<svg xmlns="http://www.w3.org/2000/svg" xmlns:xlink="http://www.w3.org/1999/xlink" width="500" zoomAndPan="magnify" viewBox="0 0 375 374.999991" height="500" preserveAspectRatio="xMidYMid meet" version="1.2"><defs><clipPath id="ce52b4bb97"><path d="M 187.5 0 C 83.945312 0 0 83.945312 0 187.5 C 0 291.054688 83.945312 375 187.5 375 C 291.054688 375 375 291.054688 375 187.5 C 375 83.945312 291.054688 0 187.5 0 Z M 187.5 0 "/></clipPath><clipPath id="92b9618944"><path d="M 287 274.320312 L 291 274.320312 L 291 297.570312 L 287 297.570312 Z M 287 274.320312 "/></clipPath><clipPath id="cd1f95d972"><path d="M 282.105469 279 L 295.605469 279 L 295.605469 283 L 282.105469 283 Z M 282.105469 279 "/></clipPath><clipPath id="403a015541"><path d="M 69 67 L 271 67 L 271 270 L 69 270 Z M 69 67 "/></clipPath><clipPath id="6c2dc7f042"><path d="M 29.179688 163.601562 L 224.8125 27.1875 L 346.214844 201.289062 L 150.578125 337.703125 Z M 29.179688 163.601562 "/></clipPath><clipPath id="5c11f7c430"><path d="M 29.179688 163.601562 L 224.8125 27.1875 L 346.214844 201.289062 L 150.578125 337.703125 Z M 29.179688 163.601562 "/></clipPath><clipPath id="e01730b258"><path d="M 29.179688 163.601562 L 224.8125 27.1875 L 346.214844 201.289062 L 150.578125 337.703125 Z M 29.179688 163.601562 "/></clipPath><clipPath id="462f114d8b"><path d="M 277 266 L 284 266 L 284 273 L 277 273 Z M 277 266 "/></clipPath><clipPath id="325b586e9a"><path d="M 276.480469 268.691406 L 282.628906 265.90625 L 285.105469 271.371094 L 278.957031 274.15625 Z M 276.480469 268.691406 "/></clipPath><clipPath id="705009d56f"><path d="M 276.480469 268.691406 L 282.628906 265.90625 L 285.105469 271.371094 L 278.957031 274.15625 Z M 276.480469 268.691406 "/></clipPath><clipPath id="8649dbf177"><path d="M 170.519531 153.15625 L 242.519531 153.15625 L 242.519531 265.65625 L 170.519531 265.65625 Z M 170.519531 153.15625 "/></clipPath><clipPath id="560e6f5036"><path d="M 129 284 L 136 284 L 136 291 L 129 291 Z M 129 284 "/></clipPath><clipPath id="55748c34ee"><path d="M 128.316406 286.605469 L 134.464844 283.820312 L 136.941406 289.285156 L 130.792969 292.070312 Z M 128.316406 286.605469 "/></clipPath><clipPath id="efcdb8927f"><path d="M 128.316406 286.605469 L 134.464844 283.820312 L 136.941406 289.285156 L 130.792969 292.070312 Z M 128.316406 286.605469 "/></clipPath></defs><g id="c255ae3433"><g clip-rule="nonzero" clip-path="url(#ce52b4bb97)"><rect x="0" width="375" y="0" height="374.999991" style="fill:#f9fcfc;fill-opacity:1;stroke:none;"/></g><g style="fill:#040607;fill-opacity:1;"><g transform="translate(50.400587, 309.170353)"><path style="stroke:none" d="M 4.390625 -18.75 C 6.617188 -20.863281 9.363281 -21.921875 12.625 -21.921875 C 15.894531 -21.921875 18.640625 -20.863281 20.859375 -18.75 C 23.085938 -16.644531 24.203125 -14.03125 24.203125 -10.90625 C 24.203125 -7.789062 23.085938 -5.164062 20.859375 -3.03125 C 18.640625 -0.90625 15.894531 0.15625 12.625 0.15625 C 9.363281 0.15625 6.617188 -0.90625 4.390625 -3.03125 C 2.171875 -5.164062 1.0625 -7.789062 1.0625 -10.90625 C 1.0625 -14.03125 2.171875 -16.644531 4.390625 -18.75 Z M 12.65625 -18.625 C 10.5 -18.625 8.648438 -17.878906 7.109375 -16.390625 C 5.566406 -14.898438 4.796875 -13.070312 4.796875 -10.90625 C 4.796875 -8.75 5.570312 -6.914062 7.125 -5.40625 C 8.675781 -3.90625 10.519531 -3.15625 12.65625 -3.15625 C 14.800781 -3.15625 16.628906 -3.90625 18.140625 -5.40625 C 19.660156 -6.914062 20.421875 -8.75 20.421875 -10.90625 C 20.421875 -13.070312 19.660156 -14.898438 18.140625 -16.390625 C 16.628906 -17.878906 14.800781 -18.625 12.65625 -18.625 Z M 12.65625 -18.625 "/></g></g><g style="fill:#040607;fill-opacity:1;"><g transform="translate(75.657957, 309.170353)"><path style="stroke:none" d=""/></g></g><g style="fill:#040607;fill-opacity:1;"><g transform="translate(83.702896, 309.170353)"><path style="stroke:none" d="M 16.8125 -27.265625 L 13 -24.203125 L 9.828125 -24.203125 L 13.125 -28.8125 Z M 21.421875 -21.828125 L 21.421875 -9.046875 C 21.421875 -6.191406 20.578125 -3.941406 18.890625 -2.296875 C 17.210938 -0.660156 14.894531 0.15625 11.9375 0.15625 C 8.988281 0.15625 6.664062 -0.660156 4.96875 -2.296875 C 3.28125 -3.941406 2.4375 -6.191406 2.4375 -9.046875 L 2.4375 -21.828125 L 6.109375 -21.828125 L 6.109375 -9.046875 C 6.109375 -7.210938 6.632812 -5.769531 7.6875 -4.71875 C 8.738281 -3.675781 10.164062 -3.15625 11.96875 -3.15625 C 13.757812 -3.15625 15.171875 -3.671875 16.203125 -4.703125 C 17.234375 -5.742188 17.75 -7.191406 17.75 -9.046875 L 17.75 -21.828125 Z M 21.421875 -21.828125 "/></g></g><g style="fill:#040607;fill-opacity:1;"><g transform="translate(107.525895, 309.170353)"><path style="stroke:none" d="M 12.34375 -16.71875 C 14.28125 -16.71875 15.796875 -16.148438 16.890625 -15.015625 C 17.984375 -13.878906 18.53125 -12.316406 18.53125 -10.328125 L 18.53125 0 L 14.9375 0 L 14.9375 -9.328125 C 14.9375 -10.578125 14.582031 -11.554688 13.875 -12.265625 C 13.164062 -12.984375 12.191406 -13.34375 10.953125 -13.34375 C 9.617188 -13.320312 8.53125 -12.894531 7.6875 -12.0625 C 6.84375 -11.238281 6.359375 -10.160156 6.234375 -8.828125 L 6.234375 0 L 2.65625 0 L 2.65625 -16.59375 L 6.234375 -16.59375 L 6.234375 -13.40625 C 7.359375 -15.613281 9.394531 -16.71875 12.34375 -16.71875 Z M 12.34375 -16.71875 "/></g></g><g style="fill:#040607;fill-opacity:1;"><g transform="translate(128.199519, 309.170353)"><path style="stroke:none" d="M 2.9375 -22.90625 C 3.332031 -23.3125 3.828125 -23.515625 4.421875 -23.515625 C 5.023438 -23.515625 5.523438 -23.3125 5.921875 -22.90625 C 6.316406 -22.5 6.515625 -21.972656 6.515625 -21.328125 C 6.515625 -20.703125 6.316406 -20.1875 5.921875 -19.78125 C 5.523438 -19.382812 5.023438 -19.1875 4.421875 -19.1875 C 3.828125 -19.1875 3.332031 -19.382812 2.9375 -19.78125 C 2.539062 -20.1875 2.34375 -20.703125 2.34375 -21.328125 C 2.34375 -21.972656 2.539062 -22.5 2.9375 -22.90625 Z M 6.203125 0 L 2.65625 0 L 2.65625 -16.59375 L 6.203125 -16.59375 Z M 6.203125 0 "/></g></g><g style="fill:#040607;fill-opacity:1;"><g transform="translate(137.055183, 309.170353)"><path style="stroke:none" d="M 9.453125 -16.71875 C 12.441406 -16.71875 14.726562 -15.8125 16.3125 -14 L 14.34375 -11.703125 C 13.09375 -12.960938 11.515625 -13.582031 9.609375 -13.5625 C 8.171875 -13.5625 6.988281 -13.066406 6.0625 -12.078125 C 5.132812 -11.097656 4.671875 -9.828125 4.671875 -8.265625 C 4.671875 -6.703125 5.132812 -5.425781 6.0625 -4.4375 C 6.988281 -3.457031 8.171875 -2.96875 9.609375 -2.96875 C 11.722656 -2.96875 13.351562 -3.628906 14.5 -4.953125 L 16.5 -2.96875 C 14.9375 -0.90625 12.585938 0.125 9.453125 0.125 C 6.972656 0.125 4.957031 -0.644531 3.40625 -2.1875 C 1.863281 -3.738281 1.09375 -5.765625 1.09375 -8.265625 C 1.09375 -10.773438 1.863281 -12.8125 3.40625 -14.375 C 4.957031 -15.9375 6.972656 -16.71875 9.453125 -16.71875 Z M 9.453125 -16.71875 "/></g></g><g style="fill:#040607;fill-opacity:1;"><g transform="translate(154.641796, 309.170353)"><path style="stroke:none" d="M 9.765625 -16.71875 C 12.316406 -16.71875 14.394531 -15.941406 16 -14.390625 C 17.601562 -12.835938 18.40625 -10.804688 18.40625 -8.296875 C 18.40625 -5.796875 17.601562 -3.765625 16 -2.203125 C 14.394531 -0.648438 12.316406 0.125 9.765625 0.125 C 7.179688 0.125 5.085938 -0.648438 3.484375 -2.203125 C 1.890625 -3.765625 1.09375 -5.796875 1.09375 -8.296875 C 1.09375 -10.804688 1.890625 -12.835938 3.484375 -14.390625 C 5.085938 -15.941406 7.179688 -16.71875 9.765625 -16.71875 Z M 9.765625 -13.625 C 8.265625 -13.625 7.039062 -13.125 6.09375 -12.125 C 5.144531 -11.132812 4.671875 -9.847656 4.671875 -8.265625 C 4.671875 -6.660156 5.144531 -5.359375 6.09375 -4.359375 C 7.039062 -3.367188 8.257812 -2.875 9.75 -2.875 C 11.25 -2.875 12.46875 -3.367188 13.40625 -4.359375 C 14.34375 -5.359375 14.8125 -6.660156 14.8125 -8.265625 C 14.8125 -9.847656 14.335938 -11.132812 13.390625 -12.125 C 12.441406 -13.125 11.234375 -13.625 9.765625 -13.625 Z M 9.765625 -13.625 "/></g></g><g style="fill:#040607;fill-opacity:1;"><g transform="translate(174.130503, 309.170353)"><path style="stroke:none" d=""/></g></g><g style="fill:#040607;fill-opacity:1;"><g transform="translate(182.175441, 309.170353)"><path style="stroke:none" d="M 12.53125 -21.921875 C 14.070312 -21.921875 15.578125 -21.625 17.046875 -21.03125 C 18.515625 -20.4375 19.773438 -19.613281 20.828125 -18.5625 L 18.6875 -15.875 C 17.894531 -16.726562 16.957031 -17.40625 15.875 -17.90625 C 14.789062 -18.40625 13.695312 -18.65625 12.59375 -18.65625 C 10.414062 -18.65625 8.570312 -17.910156 7.0625 -16.421875 C 5.550781 -14.929688 4.796875 -13.117188 4.796875 -10.984375 C 4.796875 -8.816406 5.550781 -6.988281 7.0625 -5.5 C 8.570312 -4.019531 10.414062 -3.28125 12.59375 -3.28125 C 14.863281 -3.28125 16.894531 -4.140625 18.6875 -5.859375 L 20.859375 -3.4375 C 19.742188 -2.332031 18.4375 -1.457031 16.9375 -0.8125 C 15.4375 -0.164062 13.925781 0.15625 12.40625 0.15625 C 9.207031 0.15625 6.515625 -0.90625 4.328125 -3.03125 C 2.148438 -5.164062 1.0625 -7.804688 1.0625 -10.953125 C 1.0625 -14.046875 2.164062 -16.644531 4.375 -18.75 C 6.59375 -20.863281 9.3125 -21.921875 12.53125 -21.921875 Z M 12.53125 -21.921875 "/></g></g><g style="fill:#040607;fill-opacity:1;"><g transform="translate(203.909245, 309.170353)"><path style="stroke:none" d="M 12.59375 0 L 12.59375 -2.03125 C 11.414062 -0.570312 9.585938 0.15625 7.109375 0.15625 C 5.335938 0.15625 3.921875 -0.328125 2.859375 -1.296875 C 1.804688 -2.265625 1.28125 -3.492188 1.28125 -4.984375 C 1.28125 -6.503906 1.828125 -7.710938 2.921875 -8.609375 C 4.023438 -9.503906 5.566406 -9.960938 7.546875 -9.984375 L 12.5625 -9.984375 L 12.5625 -10.484375 C 12.5625 -11.535156 12.222656 -12.351562 11.546875 -12.9375 C 10.878906 -13.519531 9.898438 -13.8125 8.609375 -13.8125 C 7.003906 -13.8125 5.375 -13.25 3.71875 -12.125 L 2.25 -14.625 C 3.507812 -15.375 4.644531 -15.910156 5.65625 -16.234375 C 6.664062 -16.554688 7.910156 -16.71875 9.390625 -16.71875 C 11.503906 -16.71875 13.144531 -16.203125 14.3125 -15.171875 C 15.476562 -14.140625 16.070312 -12.710938 16.09375 -10.890625 L 16.125 0 Z M 7.859375 -2.6875 C 9.128906 -2.6875 10.203125 -2.976562 11.078125 -3.5625 C 11.960938 -4.15625 12.457031 -4.910156 12.5625 -5.828125 L 12.5625 -7.359375 L 8.078125 -7.359375 C 6.890625 -7.359375 6.019531 -7.1875 5.46875 -6.84375 C 4.914062 -6.5 4.640625 -5.929688 4.640625 -5.140625 C 4.640625 -4.390625 4.925781 -3.789062 5.5 -3.34375 C 6.070312 -2.90625 6.859375 -2.6875 7.859375 -2.6875 Z M 7.859375 -2.6875 "/></g></g><g style="fill:#040607;fill-opacity:1;"><g transform="translate(222.181857, 309.170353)"><path style="stroke:none" d="M 24.296875 -16.71875 C 26.191406 -16.71875 27.675781 -16.144531 28.75 -15 C 29.832031 -13.851562 30.375 -12.296875 30.375 -10.328125 L 30.375 0 L 26.796875 0 L 26.796875 -9.328125 C 26.796875 -10.597656 26.445312 -11.585938 25.75 -12.296875 C 25.050781 -13.015625 24.085938 -13.375 22.859375 -13.375 C 21.460938 -13.332031 20.351562 -12.828125 19.53125 -11.859375 C 18.71875 -10.898438 18.3125 -9.679688 18.3125 -8.203125 L 18.3125 0 L 14.71875 0 L 14.71875 -9.328125 C 14.71875 -10.597656 14.367188 -11.585938 13.671875 -12.296875 C 12.972656 -13.015625 12.023438 -13.375 10.828125 -13.375 C 9.410156 -13.332031 8.285156 -12.828125 7.453125 -11.859375 C 6.617188 -10.898438 6.203125 -9.679688 6.203125 -8.203125 L 6.203125 0 L 2.65625 0 L 2.65625 -16.59375 L 6.203125 -16.59375 L 6.203125 -13.375 C 7.304688 -15.601562 9.3125 -16.71875 12.21875 -16.71875 C 13.695312 -16.71875 14.929688 -16.367188 15.921875 -15.671875 C 16.910156 -14.972656 17.601562 -13.988281 18 -12.71875 C 19.007812 -15.382812 21.109375 -16.71875 24.296875 -16.71875 Z M 24.296875 -16.71875 "/></g></g><g style="fill:#040607;fill-opacity:1;"><g transform="translate(254.704617, 309.170353)"><path style="stroke:none" d="M 2.9375 -22.90625 C 3.332031 -23.3125 3.828125 -23.515625 4.421875 -23.515625 C 5.023438 -23.515625 5.523438 -23.3125 5.921875 -22.90625 C 6.316406 -22.5 6.515625 -21.972656 6.515625 -21.328125 C 6.515625 -20.703125 6.316406 -20.1875 5.921875 -19.78125 C 5.523438 -19.382812 5.023438 -19.1875 4.421875 -19.1875 C 3.828125 -19.1875 3.332031 -19.382812 2.9375 -19.78125 C 2.539062 -20.1875 2.34375 -20.703125 2.34375 -21.328125 C 2.34375 -21.972656 2.539062 -22.5 2.9375 -22.90625 Z M 6.203125 0 L 2.65625 0 L 2.65625 -16.59375 L 6.203125 -16.59375 Z M 6.203125 0 "/></g></g><g style="fill:#040607;fill-opacity:1;"><g transform="translate(263.560282, 309.170353)"><path style="stroke:none" d="M 12.34375 -16.71875 C 14.28125 -16.71875 15.796875 -16.148438 16.890625 -15.015625 C 17.984375 -13.878906 18.53125 -12.316406 18.53125 -10.328125 L 18.53125 0 L 14.9375 0 L 14.9375 -9.328125 C 14.9375 -10.578125 14.582031 -11.554688 13.875 -12.265625 C 13.164062 -12.984375 12.191406 -13.34375 10.953125 -13.34375 C 9.617188 -13.320312 8.53125 -12.894531 7.6875 -12.0625 C 6.84375 -11.238281 6.359375 -10.160156 6.234375 -8.828125 L 6.234375 0 L 2.65625 0 L 2.65625 -16.59375 L 6.234375 -16.59375 L 6.234375 -13.40625 C 7.359375 -15.613281 9.394531 -16.71875 12.34375 -16.71875 Z M 12.34375 -16.71875 "/></g></g><g style="fill:#040607;fill-opacity:1;"><g transform="translate(284.233906, 309.170353)"><path style="stroke:none" d="M 12.53125 -16.71875 C 14.46875 -16.71875 15.984375 -16.148438 17.078125 -15.015625 C 18.171875 -13.878906 18.71875 -12.316406 18.71875 -10.328125 L 18.71875 0 L 15.125 0 L 15.125 -9.328125 C 15.125 -10.578125 14.769531 -11.554688 14.0625 -12.265625 C 13.351562 -12.984375 12.378906 -13.34375 11.140625 -13.34375 C 9.679688 -13.320312 8.523438 -12.828125 7.671875 -11.859375 C 6.816406 -10.898438 6.390625 -9.671875 6.390625 -8.171875 L 6.390625 0 L 2.8125 0 L 2.8125 -23.140625 L 6.390625 -23.140625 L 6.390625 -13.34375 C 7.535156 -15.59375 9.582031 -16.71875 12.53125 -16.71875 Z M 12.53125 -16.71875 "/></g></g><g style="fill:#040607;fill-opacity:1;"><g transform="translate(305.094632, 309.170353)"><path style="stroke:none" d="M 9.765625 -16.71875 C 12.316406 -16.71875 14.394531 -15.941406 16 -14.390625 C 17.601562 -12.835938 18.40625 -10.804688 18.40625 -8.296875 C 18.40625 -5.796875 17.601562 -3.765625 16 -2.203125 C 14.394531 -0.648438 12.316406 0.125 9.765625 0.125 C 7.179688 0.125 5.085938 -0.648438 3.484375 -2.203125 C 1.890625 -3.765625 1.09375 -5.796875 1.09375 -8.296875 C 1.09375 -10.804688 1.890625 -12.835938 3.484375 -14.390625 C 5.085938 -15.941406 7.179688 -16.71875 9.765625 -16.71875 Z M 9.765625 -13.625 C 8.265625 -13.625 7.039062 -13.125 6.09375 -12.125 C 5.144531 -11.132812 4.671875 -9.847656 4.671875 -8.265625 C 4.671875 -6.660156 5.144531 -5.359375 6.09375 -4.359375 C 7.039062 -3.367188 8.257812 -2.875 9.75 -2.875 C 11.25 -2.875 12.46875 -3.367188 13.40625 -4.359375 C 14.34375 -5.359375 14.8125 -6.660156 14.8125 -8.265625 C 14.8125 -9.847656 14.335938 -11.132812 13.390625 -12.125 C 12.441406 -13.125 11.234375 -13.625 9.765625 -13.625 Z M 9.765625 -13.625 "/></g></g><g clip-rule="nonzero" clip-path="url(#92b9618944)"><path style=" stroke:none;fill-rule:nonzero;fill:#000000;fill-opacity:1;" d="M 290.566406 297.574219 L 290.566406 274.320312 L 287.375 274.320312 L 287.375 297.574219 L 290.566406 297.574219 "/></g><g clip-rule="nonzero" clip-path="url(#cd1f95d972)"><path style=" stroke:none;fill-rule:nonzero;fill:#000000;fill-opacity:1;" d="M 295.582031 279.511719 L 282.128906 279.511719 L 282.128906 282.671875 L 295.582031 282.671875 L 295.582031 279.511719 "/></g><g clip-rule="nonzero" clip-path="url(#403a015541)"><g clip-rule="nonzero" clip-path="url(#6c2dc7f042)"><g clip-rule="nonzero" clip-path="url(#5c11f7c430)"><g clip-rule="nonzero" clip-path="url(#e01730b258)"><path style=" stroke:none;fill-rule:nonzero;fill:#c6302c;fill-opacity:1;" d="M 252.589844 86.382812 C 206.4375 41.644531 142.761719 84.761719 160.945312 143.988281 C 111.65625 106.449219 49.1875 151.296875 75.214844 210.066406 C 98.824219 263.390625 248.300781 269.265625 248.300781 269.265625 C 248.300781 269.265625 294.460938 126.976562 252.589844 86.382812 Z M 252.589844 86.382812 "/></g></g></g></g><g clip-rule="nonzero" clip-path="url(#462f114d8b)"><g clip-rule="nonzero" clip-path="url(#325b586e9a)"><g clip-rule="nonzero" clip-path="url(#705009d56f)"><path style=" stroke:none;fill-rule:nonzero;fill:#008000;fill-opacity:1;" d="M 283.085938 267.699219 C 282.035156 266.21875 280.042969 267.085938 280.242188 268.828125 C 279.066406 267.527344 277.101562 268.453125 277.519531 270.21875 C 277.902344 271.824219 282.023438 272.757812 282.023438 272.757812 C 282.023438 272.757812 284.039062 269.042969 283.085938 267.699219 Z M 283.085938 267.699219 "/></g></g></g><g clip-rule="nonzero" clip-path="url(#8649dbf177)"><path style=" stroke:none;fill-rule:nonzero;fill:#ffffff;fill-opacity:1;" d="M 242.261719 186.386719 L 209.007812 186.386719 L 209.007812 153.132812 L 203.890625 153.132812 L 203.890625 186.386719 L 170.636719 186.386719 L 170.636719 191.503906 L 203.890625 191.503906 L 203.890625 265.683594 L 209.007812 265.683594 L 209.007812 191.503906 L 242.261719 191.503906 Z M 242.261719 186.386719 "/></g><g clip-rule="nonzero" clip-path="url(#560e6f5036)"><g clip-rule="nonzero" clip-path="url(#55748c34ee)"><g clip-rule="nonzero" clip-path="url(#efcdb8927f)"><path style=" stroke:none;fill-rule:nonzero;fill:#ffff00;fill-opacity:1;" d="M 134.921875 285.613281 C 133.871094 284.132812 131.878906 285 132.078125 286.742188 C 130.902344 285.445312 128.9375 286.367188 129.355469 288.136719 C 129.738281 289.738281 133.859375 290.671875 133.859375 290.671875 C 133.859375 290.671875 135.875 286.957031 134.921875 285.613281 Z M 134.921875 285.613281 "/></g></g></g><g style="fill:#ffffff;fill-opacity:1;"><g transform="translate(109.702822, 220.540073)"><path style="stroke:none" d="M 11.625 -19.28125 L 11.625 -5.953125 C 11.625 -4.023438 11.085938 -2.523438 10.015625 -1.453125 C 8.953125 -0.390625 7.488281 0.140625 5.625 0.140625 C 3.34375 0.140625 1.445312 -0.785156 -0.0625 -2.640625 L 1.484375 -5.125 C 2.785156 -3.707031 4.15625 -3 5.59375 -3 C 6.476562 -3 7.15625 -3.257812 7.625 -3.78125 C 8.101562 -4.3125 8.34375 -5.070312 8.34375 -6.0625 L 8.34375 -16.359375 L 1.6875 -16.359375 L 1.6875 -19.28125 Z M 11.625 -19.28125 "/></g></g><g style="fill:#ffffff;fill-opacity:1;"><g transform="translate(123.441984, 220.540073)"><path style="stroke:none" d="M 16.3125 -16.359375 L 5.78125 -16.359375 L 5.78125 -11.15625 L 15.203125 -11.15625 L 15.203125 -8.234375 L 5.78125 -8.234375 L 5.78125 -2.921875 L 16.640625 -2.921875 L 16.640625 0 L 2.53125 0 L 2.53125 -19.28125 L 16.3125 -19.28125 Z M 16.3125 -16.359375 "/></g></g><g style="fill:#ffffff;fill-opacity:1;"><g transform="translate(141.503918, 220.540073)"><path style="stroke:none" d="M 8.875 -19.421875 C 11.363281 -19.421875 13.613281 -18.757812 15.625 -17.4375 L 14.265625 -14.578125 C 12.304688 -15.765625 10.425781 -16.359375 8.625 -16.359375 C 7.644531 -16.359375 6.875 -16.179688 6.3125 -15.828125 C 5.757812 -15.484375 5.484375 -14.988281 5.484375 -14.34375 C 5.484375 -13.707031 5.738281 -13.160156 6.25 -12.703125 C 6.769531 -12.253906 7.414062 -11.925781 8.1875 -11.71875 C 8.957031 -11.507812 9.789062 -11.242188 10.6875 -10.921875 C 11.582031 -10.597656 12.414062 -10.253906 13.1875 -9.890625 C 13.96875 -9.535156 14.609375 -8.976562 15.109375 -8.21875 C 15.609375 -7.457031 15.859375 -6.535156 15.859375 -5.453125 C 15.859375 -3.765625 15.179688 -2.414062 13.828125 -1.40625 C 12.484375 -0.394531 10.738281 0.109375 8.59375 0.109375 C 7.125 0.109375 5.703125 -0.164062 4.328125 -0.71875 C 2.953125 -1.269531 1.75 -2.015625 0.71875 -2.953125 L 2.125 -5.75 C 3.09375 -4.851562 4.160156 -4.160156 5.328125 -3.671875 C 6.492188 -3.191406 7.601562 -2.953125 8.65625 -2.953125 C 9.789062 -2.953125 10.675781 -3.15625 11.3125 -3.5625 C 11.945312 -3.976562 12.265625 -4.550781 12.265625 -5.28125 C 12.265625 -5.945312 12.003906 -6.503906 11.484375 -6.953125 C 10.972656 -7.398438 10.332031 -7.726562 9.5625 -7.9375 C 8.789062 -8.15625 7.953125 -8.414062 7.046875 -8.71875 C 6.148438 -9.019531 5.316406 -9.335938 4.546875 -9.671875 C 3.773438 -10.015625 3.128906 -10.5625 2.609375 -11.3125 C 2.097656 -12.070312 1.84375 -12.984375 1.84375 -14.046875 C 1.84375 -15.679688 2.484375 -16.984375 3.765625 -17.953125 C 5.054688 -18.929688 6.757812 -19.421875 8.875 -19.421875 Z M 8.875 -19.421875 "/></g></g><g style="fill:#ffffff;fill-opacity:1;"><g transform="translate(158.629713, 220.540073)"><path style="stroke:none" d="M 18.921875 -19.28125 L 18.921875 -7.984375 C 18.921875 -5.472656 18.175781 -3.488281 16.6875 -2.03125 C 15.207031 -0.582031 13.160156 0.140625 10.546875 0.140625 C 7.941406 0.140625 5.890625 -0.582031 4.390625 -2.03125 C 2.898438 -3.488281 2.15625 -5.472656 2.15625 -7.984375 L 2.15625 -19.28125 L 5.40625 -19.28125 L 5.40625 -7.984375 C 5.40625 -6.367188 5.867188 -5.097656 6.796875 -4.171875 C 7.722656 -3.242188 8.984375 -2.78125 10.578125 -2.78125 C 12.160156 -2.78125 13.40625 -3.238281 14.3125 -4.15625 C 15.21875 -5.070312 15.671875 -6.347656 15.671875 -7.984375 L 15.671875 -19.28125 Z M 18.921875 -19.28125 "/></g></g><g style="fill:#ffffff;fill-opacity:1;"><g transform="translate(179.665238, 220.540073)"><path style="stroke:none" d="M 8.875 -19.421875 C 11.363281 -19.421875 13.613281 -18.757812 15.625 -17.4375 L 14.265625 -14.578125 C 12.304688 -15.765625 10.425781 -16.359375 8.625 -16.359375 C 7.644531 -16.359375 6.875 -16.179688 6.3125 -15.828125 C 5.757812 -15.484375 5.484375 -14.988281 5.484375 -14.34375 C 5.484375 -13.707031 5.738281 -13.160156 6.25 -12.703125 C 6.769531 -12.253906 7.414062 -11.925781 8.1875 -11.71875 C 8.957031 -11.507812 9.789062 -11.242188 10.6875 -10.921875 C 11.582031 -10.597656 12.414062 -10.253906 13.1875 -9.890625 C 13.96875 -9.535156 14.609375 -8.976562 15.109375 -8.21875 C 15.609375 -7.457031 15.859375 -6.535156 15.859375 -5.453125 C 15.859375 -3.765625 15.179688 -2.414062 13.828125 -1.40625 C 12.484375 -0.394531 10.738281 0.109375 8.59375 0.109375 C 7.125 0.109375 5.703125 -0.164062 4.328125 -0.71875 C 2.953125 -1.269531 1.75 -2.015625 0.71875 -2.953125 L 2.125 -5.75 C 3.09375 -4.851562 4.160156 -4.160156 5.328125 -3.671875 C 6.492188 -3.191406 7.601562 -2.953125 8.65625 -2.953125 C 9.789062 -2.953125 10.675781 -3.15625 11.3125 -3.5625 C 11.945312 -3.976562 12.265625 -4.550781 12.265625 -5.28125 C 12.265625 -5.945312 12.003906 -6.503906 11.484375 -6.953125 C 10.972656 -7.398438 10.332031 -7.726562 9.5625 -7.9375 C 8.789062 -8.15625 7.953125 -8.414062 7.046875 -8.71875 C 6.148438 -9.019531 5.316406 -9.335938 4.546875 -9.671875 C 3.773438 -10.015625 3.128906 -10.5625 2.609375 -11.3125 C 2.097656 -12.070312 1.84375 -12.984375 1.84375 -14.046875 C 1.84375 -15.679688 2.484375 -16.984375 3.765625 -17.953125 C 5.054688 -18.929688 6.757812 -19.421875 8.875 -19.421875 Z M 8.875 -19.421875 "/></g></g></g></svg>