<svg xmlns="http://www.w3.org/2000/svg" xmlns:xlink="http://www.w3.org/1999/xlink" width="500" zoomAndPan="magnify" viewBox="0 0 375 374.999991" height="500" preserveAspectRatio="xMidYMid meet" version="1.2"><defs><clipPath id="eb183a8130"><path d="M 27.359375 27.359375 L 347.640625 27.359375 L 347.640625 347.640625 L 27.359375 347.640625 Z M 27.359375 27.359375 "/></clipPath><clipPath id="7c8c62d008"><path d="M 187.5 27.359375 C 99.058594 27.359375 27.359375 99.058594 27.359375 187.5 C 27.359375 275.941406 99.058594 347.640625 187.5 347.640625 C 275.941406 347.640625 347.640625 275.941406 347.640625 187.5 C 347.640625 99.058594 275.941406 27.359375 187.5 27.359375 Z M 187.5 27.359375 "/></clipPath><clipPath id="8c9d19383e"><path d="M 277 250.023438 L 281 250.023438 L 281 271.023438 L 277 271.023438 Z M 277 250.023438 "/></clipPath><clipPath id="4a9256109d"><path d="M 272.796875 254 L 284.796875 254 L 284.796875 258 L 272.796875 258 Z M 272.796875 254 "/></clipPath><clipPath id="6ab360a1a4"><path d="M 80 64 L 262 64 L 262 246 L 80 246 Z M 80 64 "/></clipPath><clipPath id="68e0f05a9d"><path d="M 44.757812 150.195312 L 220.707031 27.507812 L 330.09375 184.386719 L 154.144531 307.074219 Z M 44.757812 150.195312 "/></clipPath><clipPath id="ffd64b20fe"><path d="M 44.757812 150.195312 L 220.707031 27.507812 L 330.09375 184.386719 L 154.144531 307.074219 Z M 44.757812 150.195312 "/></clipPath><clipPath id="a73742e88d"><path d="M 44.757812 150.195312 L 220.707031 27.507812 L 330.09375 184.386719 L 154.144531 307.074219 Z M 44.757812 150.195312 "/></clipPath><clipPath id="7dcdfbfe3d"><path d="M 268 243 L 274 243 L 274 249 L 268 249 Z M 268 243 "/></clipPath><clipPath id="0f7c48bccc"><path d="M 267.726562 244.945312 L 273.191406 242.46875 L 275.359375 247.25 L 269.890625 249.726562 Z M 267.726562 244.945312 "/></clipPath><clipPath id="a10463e203"><path d="M 267.726562 244.945312 L 273.191406 242.46875 L 275.359375 247.25 L 269.890625 249.726562 Z M 267.726562 244.945312 "/></clipPath><clipPath id="9d2126f394"><path d="M 172.1875 140.78125 L 236.6875 140.78125 L 236.6875 242 L 172.1875 242 Z M 172.1875 140.78125 "/></clipPath><clipPath id="5c1f4a26cf"><path d="M 135 259 L 141 259 L 141 265 L 135 265 Z M 135 259 "/></clipPath><clipPath id="749ab66f86"><path d="M 134.140625 261.097656 L 139.605469 258.621094 L 141.773438 263.402344 L 136.308594 265.878906 Z M 134.140625 261.097656 "/></clipPath><clipPath id="387bd490af"><path d="M 134.140625 261.097656 L 139.605469 258.621094 L 141.773438 263.402344 L 136.308594 265.878906 Z M 134.140625 261.097656 "/></clipPath></defs><g id="6b6a69630a"><g clip-rule="nonzero" clip-path="url(#eb183a8130)"><g clip-rule="nonzero" clip-path="url(#7c8c62d008)"><path style=" stroke:none;fill-rule:nonzero;fill:#f9fcfc;fill-opacity:1;" d="M 27.359375 27.359375 L 347.640625 27.359375 L 347.640625 347.640625 L 27.359375 347.640625 Z M 27.359375 27.359375 "/></g></g><g style="fill:#040607;fill-opacity:1;"><g transform="translate(63.890376, 281.441845)"><path style="stroke:none" d="M 3.953125 -16.90625 C 5.960938 -18.8125 8.4375 -19.765625 11.375 -19.765625 C 14.320312 -19.765625 16.796875 -18.8125 18.796875 -16.90625 C 20.804688 -15 21.8125 -12.640625 21.8125 -9.828125 C 21.8125 -7.023438 20.804688 -4.660156 18.796875 -2.734375 C 16.796875 -0.816406 14.320312 0.140625 11.375 0.140625 C 8.4375 0.140625 5.960938 -0.816406 3.953125 -2.734375 C 1.953125 -4.660156 0.953125 -7.023438 0.953125 -9.828125 C 0.953125 -12.640625 1.953125 -15 3.953125 -16.90625 Z M 11.40625 -16.78125 C 9.457031 -16.78125 7.789062 -16.109375 6.40625 -14.765625 C 5.019531 -13.429688 4.328125 -11.789062 4.328125 -9.84375 C 4.328125 -7.894531 5.023438 -6.238281 6.421875 -4.875 C 7.816406 -3.519531 9.476562 -2.84375 11.40625 -2.84375 C 13.34375 -2.84375 14.992188 -3.519531 16.359375 -4.875 C 17.722656 -6.238281 18.40625 -7.894531 18.40625 -9.84375 C 18.40625 -11.789062 17.722656 -13.429688 16.359375 -14.765625 C 14.992188 -16.109375 13.34375 -16.78125 11.40625 -16.78125 Z M 11.40625 -16.78125 "/></g></g><g style="fill:#040607;fill-opacity:1;"><g transform="translate(86.662567, 281.441845)"><path style="stroke:none" d=""/></g></g><g style="fill:#040607;fill-opacity:1;"><g transform="translate(93.91593, 281.441845)"><path style="stroke:none" d="M 15.15625 -24.5625 L 11.71875 -21.8125 L 8.859375 -21.8125 L 11.828125 -25.96875 Z M 19.3125 -19.671875 L 19.3125 -8.15625 C 19.3125 -5.582031 18.550781 -3.554688 17.03125 -2.078125 C 15.507812 -0.597656 13.421875 0.140625 10.765625 0.140625 C 8.109375 0.140625 6.015625 -0.597656 4.484375 -2.078125 C 2.953125 -3.554688 2.1875 -5.582031 2.1875 -8.15625 L 2.1875 -19.671875 L 5.515625 -19.671875 L 5.515625 -8.15625 C 5.515625 -6.5 5.984375 -5.195312 6.921875 -4.25 C 7.867188 -3.3125 9.160156 -2.84375 10.796875 -2.84375 C 12.410156 -2.84375 13.679688 -3.3125 14.609375 -4.25 C 15.535156 -5.1875 16 -6.488281 16 -8.15625 L 16 -19.671875 Z M 19.3125 -19.671875 "/></g></g><g style="fill:#040607;fill-opacity:1;"><g transform="translate(115.394882, 281.441845)"><path style="stroke:none" d="M 11.125 -15.0625 C 12.875 -15.0625 14.238281 -14.550781 15.21875 -13.53125 C 16.207031 -12.507812 16.703125 -11.097656 16.703125 -9.296875 L 16.703125 0 L 13.46875 0 L 13.46875 -8.40625 C 13.46875 -9.53125 13.144531 -10.414062 12.5 -11.0625 C 11.863281 -11.707031 10.984375 -12.03125 9.859375 -12.03125 C 8.660156 -12.007812 7.679688 -11.625 6.921875 -10.875 C 6.171875 -10.125 5.738281 -9.148438 5.625 -7.953125 L 5.625 0 L 2.390625 0 L 2.390625 -14.953125 L 5.625 -14.953125 L 5.625 -12.09375 C 6.632812 -14.070312 8.46875 -15.0625 11.125 -15.0625 Z M 11.125 -15.0625 "/></g></g><g style="fill:#040607;fill-opacity:1;"><g transform="translate(134.034341, 281.441845)"><path style="stroke:none" d="M 2.640625 -20.640625 C 2.992188 -21.003906 3.441406 -21.1875 3.984375 -21.1875 C 4.535156 -21.1875 4.988281 -21.003906 5.34375 -20.640625 C 5.695312 -20.273438 5.875 -19.804688 5.875 -19.234375 C 5.875 -18.671875 5.695312 -18.203125 5.34375 -17.828125 C 4.988281 -17.460938 4.535156 -17.28125 3.984375 -17.28125 C 3.441406 -17.28125 2.992188 -17.460938 2.640625 -17.828125 C 2.285156 -18.203125 2.109375 -18.671875 2.109375 -19.234375 C 2.109375 -19.804688 2.285156 -20.273438 2.640625 -20.640625 Z M 5.59375 0 L 2.390625 0 L 2.390625 -14.953125 L 5.59375 -14.953125 Z M 5.59375 0 "/></g></g><g style="fill:#040607;fill-opacity:1;"><g transform="translate(142.018659, 281.441845)"><path style="stroke:none" d="M 8.515625 -15.0625 C 11.210938 -15.0625 13.273438 -14.25 14.703125 -12.625 L 12.9375 -10.546875 C 11.8125 -11.679688 10.382812 -12.242188 8.65625 -12.234375 C 7.363281 -12.234375 6.300781 -11.785156 5.46875 -10.890625 C 4.632812 -10.003906 4.21875 -8.859375 4.21875 -7.453125 C 4.21875 -6.046875 4.632812 -4.894531 5.46875 -4 C 6.300781 -3.113281 7.363281 -2.671875 8.65625 -2.671875 C 10.570312 -2.671875 12.046875 -3.269531 13.078125 -4.46875 L 14.875 -2.671875 C 13.46875 -0.816406 11.347656 0.109375 8.515625 0.109375 C 6.285156 0.109375 4.472656 -0.585938 3.078125 -1.984375 C 1.679688 -3.378906 0.984375 -5.203125 0.984375 -7.453125 C 0.984375 -9.710938 1.679688 -11.546875 3.078125 -12.953125 C 4.472656 -14.359375 6.285156 -15.0625 8.515625 -15.0625 Z M 8.515625 -15.0625 "/></g></g><g style="fill:#040607;fill-opacity:1;"><g transform="translate(157.87485, 281.441845)"><path style="stroke:none" d="M 8.796875 -15.0625 C 11.097656 -15.0625 12.96875 -14.363281 14.40625 -12.96875 C 15.851562 -11.570312 16.578125 -9.742188 16.578125 -7.484375 C 16.578125 -5.234375 15.851562 -3.40625 14.40625 -2 C 12.96875 -0.59375 11.097656 0.109375 8.796875 0.109375 C 6.472656 0.109375 4.585938 -0.59375 3.140625 -2 C 1.703125 -3.40625 0.984375 -5.234375 0.984375 -7.484375 C 0.984375 -9.742188 1.703125 -11.570312 3.140625 -12.96875 C 4.585938 -14.363281 6.472656 -15.0625 8.796875 -15.0625 Z M 8.796875 -12.28125 C 7.453125 -12.28125 6.351562 -11.828125 5.5 -10.921875 C 4.644531 -10.023438 4.21875 -8.867188 4.21875 -7.453125 C 4.21875 -6.003906 4.644531 -4.832031 5.5 -3.9375 C 6.351562 -3.039062 7.453125 -2.59375 8.796875 -2.59375 C 10.148438 -2.59375 11.25 -3.039062 12.09375 -3.9375 C 12.9375 -4.832031 13.359375 -6.003906 13.359375 -7.453125 C 13.359375 -8.867188 12.929688 -10.023438 12.078125 -10.921875 C 11.222656 -11.828125 10.128906 -12.28125 8.796875 -12.28125 Z M 8.796875 -12.28125 "/></g></g><g style="fill:#040607;fill-opacity:1;"><g transform="translate(175.44598, 281.441845)"><path style="stroke:none" d=""/></g></g><g style="fill:#040607;fill-opacity:1;"><g transform="translate(182.699343, 281.441845)"><path style="stroke:none" d="M 11.296875 -19.765625 C 12.679688 -19.765625 14.035156 -19.492188 15.359375 -18.953125 C 16.679688 -18.421875 17.820312 -17.675781 18.78125 -16.71875 L 16.84375 -14.3125 C 16.125 -15.070312 15.273438 -15.675781 14.296875 -16.125 C 13.328125 -16.582031 12.347656 -16.8125 11.359375 -16.8125 C 9.390625 -16.8125 7.722656 -16.140625 6.359375 -14.796875 C 5.003906 -13.460938 4.328125 -11.828125 4.328125 -9.890625 C 4.328125 -7.941406 5.003906 -6.296875 6.359375 -4.953125 C 7.722656 -3.617188 9.390625 -2.953125 11.359375 -2.953125 C 13.398438 -2.953125 15.226562 -3.726562 16.84375 -5.28125 L 18.8125 -3.09375 C 17.789062 -2.101562 16.601562 -1.316406 15.25 -0.734375 C 13.90625 -0.148438 12.550781 0.140625 11.1875 0.140625 C 8.300781 0.140625 5.875 -0.816406 3.90625 -2.734375 C 1.9375 -4.660156 0.953125 -7.035156 0.953125 -9.859375 C 0.953125 -12.648438 1.945312 -15 3.9375 -16.90625 C 5.9375 -18.8125 8.390625 -19.765625 11.296875 -19.765625 Z M 11.296875 -19.765625 "/></g></g><g style="fill:#040607;fill-opacity:1;"><g transform="translate(202.294666, 281.441845)"><path style="stroke:none" d="M 11.359375 0 L 11.359375 -1.828125 C 10.285156 -0.515625 8.632812 0.140625 6.40625 0.140625 C 4.8125 0.140625 3.535156 -0.289062 2.578125 -1.15625 C 1.628906 -2.03125 1.15625 -3.144531 1.15625 -4.5 C 1.15625 -5.863281 1.648438 -6.945312 2.640625 -7.75 C 3.628906 -8.5625 5.015625 -8.976562 6.796875 -9 L 11.328125 -9 L 11.328125 -9.4375 C 11.328125 -10.394531 11.019531 -11.132812 10.40625 -11.65625 C 9.800781 -12.1875 8.921875 -12.453125 7.765625 -12.453125 C 6.316406 -12.453125 4.84375 -11.945312 3.34375 -10.9375 L 2.03125 -13.1875 C 3.164062 -13.851562 4.1875 -14.332031 5.09375 -14.625 C 6.007812 -14.914062 7.128906 -15.0625 8.453125 -15.0625 C 10.367188 -15.0625 11.847656 -14.597656 12.890625 -13.671875 C 13.941406 -12.742188 14.476562 -11.457031 14.5 -9.8125 L 14.53125 0 Z M 7.078125 -2.421875 C 8.222656 -2.421875 9.191406 -2.6875 9.984375 -3.21875 C 10.785156 -3.75 11.234375 -4.425781 11.328125 -5.25 L 11.328125 -6.640625 L 7.28125 -6.640625 C 6.207031 -6.640625 5.421875 -6.484375 4.921875 -6.171875 C 4.429688 -5.859375 4.1875 -5.347656 4.1875 -4.640625 C 4.1875 -3.960938 4.441406 -3.421875 4.953125 -3.015625 C 5.472656 -2.617188 6.179688 -2.421875 7.078125 -2.421875 Z M 7.078125 -2.421875 "/></g></g><g style="fill:#040607;fill-opacity:1;"><g transform="translate(218.769358, 281.441845)"><path style="stroke:none" d="M 21.890625 -15.0625 C 23.597656 -15.0625 24.9375 -14.546875 25.90625 -13.515625 C 26.882812 -12.484375 27.375 -11.078125 27.375 -9.296875 L 27.375 0 L 24.140625 0 L 24.140625 -8.40625 C 24.140625 -9.550781 23.828125 -10.445312 23.203125 -11.09375 C 22.578125 -11.738281 21.710938 -12.0625 20.609375 -12.0625 C 19.347656 -12.019531 18.347656 -11.5625 17.609375 -10.6875 C 16.867188 -9.820312 16.5 -8.722656 16.5 -7.390625 L 16.5 0 L 13.265625 0 L 13.265625 -8.40625 C 13.265625 -9.550781 12.953125 -10.445312 12.328125 -11.09375 C 11.703125 -11.738281 10.84375 -12.0625 9.75 -12.0625 C 8.476562 -12.019531 7.46875 -11.5625 6.71875 -10.6875 C 5.96875 -9.820312 5.59375 -8.722656 5.59375 -7.390625 L 5.59375 0 L 2.390625 0 L 2.390625 -14.953125 L 5.59375 -14.953125 L 5.59375 -12.0625 C 6.582031 -14.0625 8.390625 -15.0625 11.015625 -15.0625 C 12.347656 -15.0625 13.457031 -14.75 14.34375 -14.125 C 15.238281 -13.5 15.863281 -12.613281 16.21875 -11.46875 C 17.132812 -13.863281 19.023438 -15.0625 21.890625 -15.0625 Z M 21.890625 -15.0625 "/></g></g><g style="fill:#040607;fill-opacity:1;"><g transform="translate(248.092065, 281.441845)"><path style="stroke:none" d="M 2.640625 -20.640625 C 2.992188 -21.003906 3.441406 -21.1875 3.984375 -21.1875 C 4.535156 -21.1875 4.988281 -21.003906 5.34375 -20.640625 C 5.695312 -20.273438 5.875 -19.804688 5.875 -19.234375 C 5.875 -18.671875 5.695312 -18.203125 5.34375 -17.828125 C 4.988281 -17.460938 4.535156 -17.28125 3.984375 -17.28125 C 3.441406 -17.28125 2.992188 -17.460938 2.640625 -17.828125 C 2.285156 -18.203125 2.109375 -18.671875 2.109375 -19.234375 C 2.109375 -19.804688 2.285156 -20.273438 2.640625 -20.640625 Z M 5.59375 0 L 2.390625 0 L 2.390625 -14.953125 L 5.59375 -14.953125 Z M 5.59375 0 "/></g></g><g style="fill:#040607;fill-opacity:1;"><g transform="translate(256.076383, 281.441845)"><path style="stroke:none" d="M 11.125 -15.0625 C 12.875 -15.0625 14.238281 -14.550781 15.21875 -13.53125 C 16.207031 -12.507812 16.703125 -11.097656 16.703125 -9.296875 L 16.703125 0 L 13.46875 0 L 13.46875 -8.40625 C 13.46875 -9.53125 13.144531 -10.414062 12.5 -11.0625 C 11.863281 -11.707031 10.984375 -12.03125 9.859375 -12.03125 C 8.660156 -12.007812 7.679688 -11.625 6.921875 -10.875 C 6.171875 -10.125 5.738281 -9.148438 5.625 -7.953125 L 5.625 0 L 2.390625 0 L 2.390625 -14.953125 L 5.625 -14.953125 L 5.625 -12.09375 C 6.632812 -14.070312 8.46875 -15.0625 11.125 -15.0625 Z M 11.125 -15.0625 "/></g></g><g style="fill:#040607;fill-opacity:1;"><g transform="translate(274.715842, 281.441845)"><path style="stroke:none" d="M 11.296875 -15.0625 C 13.046875 -15.0625 14.410156 -14.550781 15.390625 -13.53125 C 16.367188 -12.507812 16.859375 -11.097656 16.859375 -9.296875 L 16.859375 0 L 13.640625 0 L 13.640625 -8.40625 C 13.640625 -9.53125 13.316406 -10.414062 12.671875 -11.0625 C 12.035156 -11.707031 11.15625 -12.03125 10.03125 -12.03125 C 8.71875 -12.007812 7.675781 -11.5625 6.90625 -10.6875 C 6.144531 -9.820312 5.765625 -8.710938 5.765625 -7.359375 L 5.765625 0 L 2.53125 0 L 2.53125 -20.859375 L 5.765625 -20.859375 L 5.765625 -12.03125 C 6.796875 -14.050781 8.640625 -15.0625 11.296875 -15.0625 Z M 11.296875 -15.0625 "/></g></g><g style="fill:#040607;fill-opacity:1;"><g transform="translate(293.523992, 281.441845)"><path style="stroke:none" d="M 8.796875 -15.0625 C 11.097656 -15.0625 12.96875 -14.363281 14.40625 -12.96875 C 15.851562 -11.570312 16.578125 -9.742188 16.578125 -7.484375 C 16.578125 -5.234375 15.851562 -3.40625 14.40625 -2 C 12.96875 -0.59375 11.097656 0.109375 8.796875 0.109375 C 6.472656 0.109375 4.585938 -0.59375 3.140625 -2 C 1.703125 -3.40625 0.984375 -5.234375 0.984375 -7.484375 C 0.984375 -9.742188 1.703125 -11.570312 3.140625 -12.96875 C 4.585938 -14.363281 6.472656 -15.0625 8.796875 -15.0625 Z M 8.796875 -12.28125 C 7.453125 -12.28125 6.351562 -11.828125 5.5 -10.921875 C 4.644531 -10.023438 4.21875 -8.867188 4.21875 -7.453125 C 4.21875 -6.003906 4.644531 -4.832031 5.5 -3.9375 C 6.351562 -3.039062 7.453125 -2.59375 8.796875 -2.59375 C 10.148438 -2.59375 11.25 -3.039062 12.09375 -3.9375 C 12.9375 -4.832031 13.359375 -6.003906 13.359375 -7.453125 C 13.359375 -8.867188 12.929688 -10.023438 12.078125 -10.921875 C 11.222656 -11.828125 10.128906 -12.28125 8.796875 -12.28125 Z M 8.796875 -12.28125 "/></g></g><g clip-rule="nonzero" clip-path="url(#8c9d19383e)"><path style=" stroke:none;fill-rule:nonzero;fill:#000000;fill-opacity:1;" d="M 280.316406 271.023438 L 280.316406 250.019531 L 277.480469 250.019531 L 277.480469 271.023438 L 280.316406 271.023438 "/></g><g clip-rule="nonzero" clip-path="url(#4a9256109d)"><path style=" stroke:none;fill-rule:nonzero;fill:#000000;fill-opacity:1;" d="M 284.773438 254.710938 L 272.816406 254.710938 L 272.816406 257.566406 L 284.773438 257.566406 L 284.773438 254.710938 "/></g><g clip-rule="nonzero" clip-path="url(#6ab360a1a4)"><g clip-rule="nonzero" clip-path="url(#68e0f05a9d)"><g clip-rule="nonzero" clip-path="url(#ffd64b20fe)"><g clip-rule="nonzero" clip-path="url(#a73742e88d)"><path style=" stroke:none;fill-rule:nonzero;fill:#c6302c;fill-opacity:1;" d="M 245.75 80.839844 C 204.179688 40.515625 146.910156 79.289062 163.324219 132.640625 C 118.9375 98.796875 62.75 139.132812 86.222656 192.074219 C 107.511719 240.113281 242.035156 245.519531 242.035156 245.519531 C 242.035156 245.519531 283.460938 117.425781 245.75 80.839844 Z M 245.75 80.839844 "/></g></g></g></g><g clip-rule="nonzero" clip-path="url(#7dcdfbfe3d)"><g clip-rule="nonzero" clip-path="url(#0f7c48bccc)"><g clip-rule="nonzero" clip-path="url(#a10463e203)"><path style=" stroke:none;fill-rule:nonzero;fill:#008000;fill-opacity:1;" d="M 273.507812 244.074219 C 272.589844 242.777344 270.84375 243.539062 271.019531 245.0625 C 269.988281 243.925781 268.265625 244.734375 268.636719 246.285156 C 268.96875 247.6875 272.578125 248.503906 272.578125 248.503906 C 272.578125 248.503906 274.34375 245.25 273.507812 244.074219 Z M 273.507812 244.074219 "/></g></g></g><g clip-rule="nonzero" clip-path="url(#9d2126f394)"><path style=" stroke:none;fill-rule:nonzero;fill:#ffffff;fill-opacity:1;" d="M 236.710938 170.660156 L 206.804688 170.660156 L 206.804688 140.757812 L 202.203125 140.757812 L 202.203125 170.660156 L 172.292969 170.660156 L 172.292969 175.265625 L 202.203125 175.265625 L 202.203125 241.976562 L 206.804688 241.976562 L 206.804688 175.265625 L 236.710938 175.265625 Z M 236.710938 170.660156 "/></g><g clip-rule="nonzero" clip-path="url(#5c1f4a26cf)"><g clip-rule="nonzero" clip-path="url(#749ab66f86)"><g clip-rule="nonzero" clip-path="url(#387bd490af)"><path style=" stroke:none;fill-rule:nonzero;fill:#ffff00;fill-opacity:1;" d="M 139.925781 260.226562 C 139.003906 258.929688 137.257812 259.691406 137.433594 261.214844 C 136.40625 260.078125 134.683594 260.886719 135.050781 262.4375 C 135.382812 263.839844 138.996094 264.65625 138.996094 264.65625 C 138.996094 264.65625 140.757812 261.402344 139.925781 260.226562 Z M 139.925781 260.226562 "/></g></g></g><g style="fill:#ffffff;fill-opacity:1;"><g transform="translate(117.357621, 201.532276)"><path style="stroke:none" d="M 10.484375 -17.375 L 10.484375 -5.359375 C 10.484375 -3.617188 10 -2.269531 9.03125 -1.3125 C 8.070312 -0.351562 6.75 0.125 5.0625 0.125 C 3.007812 0.125 1.304688 -0.710938 -0.046875 -2.390625 L 1.34375 -4.625 C 2.519531 -3.34375 3.753906 -2.703125 5.046875 -2.703125 C 5.835938 -2.703125 6.445312 -2.9375 6.875 -3.40625 C 7.300781 -3.882812 7.515625 -4.570312 7.515625 -5.46875 L 7.515625 -14.75 L 1.515625 -14.75 L 1.515625 -17.375 Z M 10.484375 -17.375 "/></g></g><g style="fill:#ffffff;fill-opacity:1;"><g transform="translate(129.744929, 201.532276)"><path style="stroke:none" d="M 14.703125 -14.75 L 5.21875 -14.75 L 5.21875 -10.0625 L 13.703125 -10.0625 L 13.703125 -7.421875 L 5.21875 -7.421875 L 5.21875 -2.625 L 15 -2.625 L 15 0 L 2.28125 0 L 2.28125 -17.375 L 14.703125 -17.375 Z M 14.703125 -14.75 "/></g></g><g style="fill:#ffffff;fill-opacity:1;"><g transform="translate(146.029672, 201.532276)"><path style="stroke:none" d="M 8 -17.5 C 10.25 -17.5 12.273438 -16.90625 14.078125 -15.71875 L 12.859375 -13.140625 C 11.085938 -14.210938 9.390625 -14.75 7.765625 -14.75 C 6.890625 -14.75 6.195312 -14.585938 5.6875 -14.265625 C 5.1875 -13.953125 4.9375 -13.503906 4.9375 -12.921875 C 4.9375 -12.347656 5.164062 -11.859375 5.625 -11.453125 C 6.09375 -11.046875 6.675781 -10.75 7.375 -10.5625 C 8.070312 -10.375 8.820312 -10.132812 9.625 -9.84375 C 10.4375 -9.550781 11.191406 -9.242188 11.890625 -8.921875 C 12.585938 -8.597656 13.160156 -8.09375 13.609375 -7.40625 C 14.066406 -6.71875 14.296875 -5.890625 14.296875 -4.921875 C 14.296875 -3.390625 13.6875 -2.171875 12.46875 -1.265625 C 11.257812 -0.359375 9.6875 0.09375 7.75 0.09375 C 6.425781 0.09375 5.140625 -0.148438 3.890625 -0.640625 C 2.648438 -1.140625 1.566406 -1.8125 0.640625 -2.65625 L 1.90625 -5.1875 C 2.789062 -4.375 3.753906 -3.75 4.796875 -3.3125 C 5.847656 -2.875 6.847656 -2.65625 7.796875 -2.65625 C 8.816406 -2.65625 9.613281 -2.84375 10.1875 -3.21875 C 10.757812 -3.59375 11.046875 -4.109375 11.046875 -4.765625 C 11.046875 -5.359375 10.8125 -5.859375 10.34375 -6.265625 C 9.882812 -6.671875 9.304688 -6.96875 8.609375 -7.15625 C 7.921875 -7.351562 7.171875 -7.585938 6.359375 -7.859375 C 5.546875 -8.128906 4.789062 -8.414062 4.09375 -8.71875 C 3.394531 -9.03125 2.8125 -9.523438 2.34375 -10.203125 C 1.882812 -10.878906 1.65625 -11.695312 1.65625 -12.65625 C 1.65625 -14.132812 2.234375 -15.3125 3.390625 -16.1875 C 4.554688 -17.0625 6.09375 -17.5 8 -17.5 Z M 8 -17.5 "/></g></g><g style="fill:#ffffff;fill-opacity:1;"><g transform="translate(161.470388, 201.532276)"><path style="stroke:none" d="M 17.0625 -17.375 L 17.0625 -7.203125 C 17.0625 -4.929688 16.390625 -3.140625 15.046875 -1.828125 C 13.703125 -0.523438 11.851562 0.125 9.5 0.125 C 7.15625 0.125 5.304688 -0.523438 3.953125 -1.828125 C 2.609375 -3.140625 1.9375 -4.929688 1.9375 -7.203125 L 1.9375 -17.375 L 4.859375 -17.375 L 4.859375 -7.203125 C 4.859375 -5.742188 5.273438 -4.59375 6.109375 -3.75 C 6.953125 -2.914062 8.09375 -2.5 9.53125 -2.5 C 10.957031 -2.5 12.078125 -2.910156 12.890625 -3.734375 C 13.710938 -4.566406 14.125 -5.722656 14.125 -7.203125 L 14.125 -17.375 Z M 17.0625 -17.375 "/></g></g><g style="fill:#ffffff;fill-opacity:1;"><g transform="translate(180.436139, 201.532276)"><path style="stroke:none" d="M 8 -17.5 C 10.25 -17.5 12.273438 -16.90625 14.078125 -15.71875 L 12.859375 -13.140625 C 11.085938 -14.210938 9.390625 -14.75 7.765625 -14.75 C 6.890625 -14.75 6.195312 -14.585938 5.6875 -14.265625 C 5.1875 -13.953125 4.9375 -13.503906 4.9375 -12.921875 C 4.9375 -12.347656 5.164062 -11.859375 5.625 -11.453125 C 6.09375 -11.046875 6.675781 -10.75 7.375 -10.5625 C 8.070312 -10.375 8.820312 -10.132812 9.625 -9.84375 C 10.4375 -9.550781 11.191406 -9.242188 11.890625 -8.921875 C 12.585938 -8.597656 13.160156 -8.09375 13.609375 -7.40625 C 14.066406 -6.71875 14.296875 -5.890625 14.296875 -4.921875 C 14.296875 -3.390625 13.6875 -2.171875 12.46875 -1.265625 C 11.257812 -0.359375 9.6875 0.09375 7.75 0.09375 C 6.425781 0.09375 5.140625 -0.148438 3.890625 -0.640625 C 2.648438 -1.140625 1.566406 -1.8125 0.640625 -2.65625 L 1.90625 -5.1875 C 2.789062 -4.375 3.753906 -3.75 4.796875 -3.3125 C 5.847656 -2.875 6.847656 -2.65625 7.796875 -2.65625 C 8.816406 -2.65625 9.613281 -2.84375 10.1875 -3.21875 C 10.757812 -3.59375 11.046875 -4.109375 11.046875 -4.765625 C 11.046875 -5.359375 10.8125 -5.859375 10.34375 -6.265625 C 9.882812 -6.671875 9.304688 -6.96875 8.609375 -7.15625 C 7.921875 -7.351562 7.171875 -7.585938 6.359375 -7.859375 C 5.546875 -8.128906 4.789062 -8.414062 4.09375 -8.71875 C 3.394531 -9.03125 2.8125 -9.523438 2.34375 -10.203125 C 1.882812 -10.878906 1.65625 -11.695312 1.65625 -12.65625 C 1.65625 -14.132812 2.234375 -15.3125 3.390625 -16.1875 C 4.554688 -17.0625 6.09375 -17.5 8 -17.5 Z M 8 -17.5 "/></g></g></g></svg>