<svg xmlns="http://www.w3.org/2000/svg" xmlns:xlink="http://www.w3.org/1999/xlink" width="500" zoomAndPan="magnify" viewBox="0 0 375 374.999991" height="500" preserveAspectRatio="xMidYMid meet" version="1.2"><defs><clipPath id="f3489706b8"><path d="M 80 84 L 262 84 L 262 266 L 80 266 Z M 80 84 "/></clipPath><clipPath id="ab05a410f8"><path d="M 44.757812 170.523438 L 220.707031 47.835938 L 330.09375 204.714844 L 154.144531 327.402344 Z M 44.757812 170.523438 "/></clipPath><clipPath id="5f220aa322"><path d="M 44.757812 170.523438 L 220.707031 47.835938 L 330.09375 204.714844 L 154.144531 327.402344 Z M 44.757812 170.523438 "/></clipPath><clipPath id="38b13aaef3"><path d="M 277 270.351562 L 281 270.351562 L 281 291.351562 L 277 291.351562 Z M 277 270.351562 "/></clipPath><clipPath id="7036996bc9"><path d="M 272.796875 275 L 284.796875 275 L 284.796875 278 L 272.796875 278 Z M 272.796875 275 "/></clipPath><clipPath id="3f33c6b8ca"><path d="M 268 263 L 274 263 L 274 269 L 268 269 Z M 268 263 "/></clipPath><clipPath id="08ee78c88b"><path d="M 267.726562 265.273438 L 273.191406 262.796875 L 275.359375 267.578125 L 269.890625 270.054688 Z M 267.726562 265.273438 "/></clipPath><clipPath id="a6d0cf3d83"><path d="M 267.726562 265.273438 L 273.191406 262.796875 L 275.359375 267.578125 L 269.890625 270.054688 Z M 267.726562 265.273438 "/></clipPath><clipPath id="e2bd051a14"><path d="M 174.460938 138.996094 L 253.210938 138.996094 L 253.210938 262.746094 L 174.460938 262.746094 Z M 174.460938 138.996094 "/></clipPath><clipPath id="510b229ab3"><path d="M 133 278 L 142 278 L 142 287 L 133 287 Z M 133 278 "/></clipPath><clipPath id="07303715fc"><path d="M 132.292969 280.886719 L 140.488281 277.171875 L 143.894531 284.6875 L 135.695312 288.402344 Z M 132.292969 280.886719 "/></clipPath><clipPath id="ba0b700d50"><path d="M 132.292969 280.886719 L 140.488281 277.171875 L 143.894531 284.6875 L 135.695312 288.402344 Z M 132.292969 280.886719 "/></clipPath></defs><g id="2f48e9d0f1"><g clip-rule="nonzero" clip-path="url(#f3489706b8)"><g clip-rule="nonzero" clip-path="url(#ab05a410f8)"><g clip-rule="nonzero" clip-path="url(#5f220aa322)"><path style=" stroke:none;fill-rule:nonzero;fill:#bb403c;fill-opacity:1;" d="M 245.6875 101.082031 C 204.179688 60.839844 146.910156 99.617188 163.265625 152.886719 C 118.9375 119.125 62.75 159.457031 86.160156 212.316406 C 107.398438 260.277344 241.835938 265.566406 241.835938 265.566406 C 241.835938 265.566406 283.347656 137.589844 245.6875 101.082031 Z M 245.6875 101.082031 "/></g></g></g><g style="fill:#040607;fill-opacity:1;"><g transform="translate(63.890376, 301.769862)"><path style="stroke:none" d="M 3.953125 -16.90625 C 5.960938 -18.8125 8.4375 -19.765625 11.375 -19.765625 C 14.320312 -19.765625 16.796875 -18.8125 18.796875 -16.90625 C 20.804688 -15 21.8125 -12.640625 21.8125 -9.828125 C 21.8125 -7.023438 20.804688 -4.660156 18.796875 -2.734375 C 16.796875 -0.816406 14.320312 0.140625 11.375 0.140625 C 8.4375 0.140625 5.960938 -0.816406 3.953125 -2.734375 C 1.953125 -4.660156 0.953125 -7.023438 0.953125 -9.828125 C 0.953125 -12.640625 1.953125 -15 3.953125 -16.90625 Z M 11.40625 -16.78125 C 9.457031 -16.78125 7.789062 -16.109375 6.40625 -14.765625 C 5.019531 -13.429688 4.328125 -11.789062 4.328125 -9.84375 C 4.328125 -7.894531 5.023438 -6.238281 6.421875 -4.875 C 7.816406 -3.519531 9.476562 -2.84375 11.40625 -2.84375 C 13.34375 -2.84375 14.992188 -3.519531 16.359375 -4.875 C 17.722656 -6.238281 18.40625 -7.894531 18.40625 -9.84375 C 18.40625 -11.789062 17.722656 -13.429688 16.359375 -14.765625 C 14.992188 -16.109375 13.34375 -16.78125 11.40625 -16.78125 Z M 11.40625 -16.78125 "/></g></g><g style="fill:#040607;fill-opacity:1;"><g transform="translate(86.662567, 301.769862)"><path style="stroke:none" d=""/></g></g><g style="fill:#040607;fill-opacity:1;"><g transform="translate(93.91593, 301.769862)"><path style="stroke:none" d="M 15.15625 -24.5625 L 11.71875 -21.8125 L 8.859375 -21.8125 L 11.828125 -25.96875 Z M 19.3125 -19.671875 L 19.3125 -8.15625 C 19.3125 -5.582031 18.550781 -3.554688 17.03125 -2.078125 C 15.507812 -0.597656 13.421875 0.140625 10.765625 0.140625 C 8.109375 0.140625 6.015625 -0.597656 4.484375 -2.078125 C 2.953125 -3.554688 2.1875 -5.582031 2.1875 -8.15625 L 2.1875 -19.671875 L 5.515625 -19.671875 L 5.515625 -8.15625 C 5.515625 -6.5 5.984375 -5.195312 6.921875 -4.25 C 7.867188 -3.3125 9.160156 -2.84375 10.796875 -2.84375 C 12.410156 -2.84375 13.679688 -3.3125 14.609375 -4.25 C 15.535156 -5.1875 16 -6.488281 16 -8.15625 L 16 -19.671875 Z M 19.3125 -19.671875 "/></g></g><g style="fill:#040607;fill-opacity:1;"><g transform="translate(115.394882, 301.769862)"><path style="stroke:none" d="M 11.125 -15.0625 C 12.875 -15.0625 14.238281 -14.550781 15.21875 -13.53125 C 16.207031 -12.507812 16.703125 -11.097656 16.703125 -9.296875 L 16.703125 0 L 13.46875 0 L 13.46875 -8.40625 C 13.46875 -9.53125 13.144531 -10.414062 12.5 -11.0625 C 11.863281 -11.707031 10.984375 -12.03125 9.859375 -12.03125 C 8.660156 -12.007812 7.679688 -11.625 6.921875 -10.875 C 6.171875 -10.125 5.738281 -9.148438 5.625 -7.953125 L 5.625 0 L 2.390625 0 L 2.390625 -14.953125 L 5.625 -14.953125 L 5.625 -12.09375 C 6.632812 -14.070312 8.46875 -15.0625 11.125 -15.0625 Z M 11.125 -15.0625 "/></g></g><g style="fill:#040607;fill-opacity:1;"><g transform="translate(134.034341, 301.769862)"><path style="stroke:none" d="M 2.640625 -20.640625 C 2.992188 -21.003906 3.441406 -21.1875 3.984375 -21.1875 C 4.535156 -21.1875 4.988281 -21.003906 5.34375 -20.640625 C 5.695312 -20.273438 5.875 -19.804688 5.875 -19.234375 C 5.875 -18.671875 5.695312 -18.203125 5.34375 -17.828125 C 4.988281 -17.460938 4.535156 -17.28125 3.984375 -17.28125 C 3.441406 -17.28125 2.992188 -17.460938 2.640625 -17.828125 C 2.285156 -18.203125 2.109375 -18.671875 2.109375 -19.234375 C 2.109375 -19.804688 2.285156 -20.273438 2.640625 -20.640625 Z M 5.59375 0 L 2.390625 0 L 2.390625 -14.953125 L 5.59375 -14.953125 Z M 5.59375 0 "/></g></g><g style="fill:#040607;fill-opacity:1;"><g transform="translate(142.018659, 301.769862)"><path style="stroke:none" d="M 8.515625 -15.0625 C 11.210938 -15.0625 13.273438 -14.25 14.703125 -12.625 L 12.9375 -10.546875 C 11.8125 -11.679688 10.382812 -12.242188 8.65625 -12.234375 C 7.363281 -12.234375 6.300781 -11.785156 5.46875 -10.890625 C 4.632812 -10.003906 4.21875 -8.859375 4.21875 -7.453125 C 4.21875 -6.046875 4.632812 -4.894531 5.46875 -4 C 6.300781 -3.113281 7.363281 -2.671875 8.65625 -2.671875 C 10.570312 -2.671875 12.046875 -3.269531 13.078125 -4.46875 L 14.875 -2.671875 C 13.46875 -0.816406 11.347656 0.109375 8.515625 0.109375 C 6.285156 0.109375 4.472656 -0.585938 3.078125 -1.984375 C 1.679688 -3.378906 0.984375 -5.203125 0.984375 -7.453125 C 0.984375 -9.710938 1.679688 -11.546875 3.078125 -12.953125 C 4.472656 -14.359375 6.285156 -15.0625 8.515625 -15.0625 Z M 8.515625 -15.0625 "/></g></g><g style="fill:#040607;fill-opacity:1;"><g transform="translate(157.87485, 301.769862)"><path style="stroke:none" d="M 8.796875 -15.0625 C 11.097656 -15.0625 12.96875 -14.363281 14.40625 -12.96875 C 15.851562 -11.570312 16.578125 -9.742188 16.578125 -7.484375 C 16.578125 -5.234375 15.851562 -3.40625 14.40625 -2 C 12.96875 -0.59375 11.097656 0.109375 8.796875 0.109375 C 6.472656 0.109375 4.585938 -0.59375 3.140625 -2 C 1.703125 -3.40625 0.984375 -5.234375 0.984375 -7.484375 C 0.984375 -9.742188 1.703125 -11.570312 3.140625 -12.96875 C 4.585938 -14.363281 6.472656 -15.0625 8.796875 -15.0625 Z M 8.796875 -12.28125 C 7.453125 -12.28125 6.351562 -11.828125 5.5 -10.921875 C 4.644531 -10.023438 4.21875 -8.867188 4.21875 -7.453125 C 4.21875 -6.003906 4.644531 -4.832031 5.5 -3.9375 C 6.351562 -3.039062 7.453125 -2.59375 8.796875 -2.59375 C 10.148438 -2.59375 11.25 -3.039062 12.09375 -3.9375 C 12.9375 -4.832031 13.359375 -6.003906 13.359375 -7.453125 C 13.359375 -8.867188 12.929688 -10.023438 12.078125 -10.921875 C 11.222656 -11.828125 10.128906 -12.28125 8.796875 -12.28125 Z M 8.796875 -12.28125 "/></g></g><g style="fill:#040607;fill-opacity:1;"><g transform="translate(175.44598, 301.769862)"><path style="stroke:none" d=""/></g></g><g style="fill:#040607;fill-opacity:1;"><g transform="translate(182.699343, 301.769862)"><path style="stroke:none" d="M 11.296875 -19.765625 C 12.679688 -19.765625 14.035156 -19.492188 15.359375 -18.953125 C 16.679688 -18.421875 17.820312 -17.675781 18.78125 -16.71875 L 16.84375 -14.3125 C 16.125 -15.070312 15.273438 -15.675781 14.296875 -16.125 C 13.328125 -16.582031 12.347656 -16.8125 11.359375 -16.8125 C 9.390625 -16.8125 7.722656 -16.140625 6.359375 -14.796875 C 5.003906 -13.460938 4.328125 -11.828125 4.328125 -9.890625 C 4.328125 -7.941406 5.003906 -6.296875 6.359375 -4.953125 C 7.722656 -3.617188 9.390625 -2.953125 11.359375 -2.953125 C 13.398438 -2.953125 15.226562 -3.726562 16.84375 -5.28125 L 18.8125 -3.09375 C 17.789062 -2.101562 16.601562 -1.316406 15.25 -0.734375 C 13.90625 -0.148438 12.550781 0.140625 11.1875 0.140625 C 8.300781 0.140625 5.875 -0.816406 3.90625 -2.734375 C 1.9375 -4.660156 0.953125 -7.035156 0.953125 -9.859375 C 0.953125 -12.648438 1.945312 -15 3.9375 -16.90625 C 5.9375 -18.8125 8.390625 -19.765625 11.296875 -19.765625 Z M 11.296875 -19.765625 "/></g></g><g style="fill:#040607;fill-opacity:1;"><g transform="translate(202.294666, 301.769862)"><path style="stroke:none" d="M 11.359375 0 L 11.359375 -1.828125 C 10.285156 -0.515625 8.632812 0.140625 6.40625 0.140625 C 4.8125 0.140625 3.535156 -0.289062 2.578125 -1.15625 C 1.628906 -2.03125 1.15625 -3.144531 1.15625 -4.5 C 1.15625 -5.863281 1.648438 -6.945312 2.640625 -7.75 C 3.628906 -8.5625 5.015625 -8.976562 6.796875 -9 L 11.328125 -9 L 11.328125 -9.4375 C 11.328125 -10.394531 11.019531 -11.132812 10.40625 -11.65625 C 9.800781 -12.1875 8.921875 -12.453125 7.765625 -12.453125 C 6.316406 -12.453125 4.84375 -11.945312 3.34375 -10.9375 L 2.03125 -13.1875 C 3.164062 -13.851562 4.1875 -14.332031 5.09375 -14.625 C 6.007812 -14.914062 7.128906 -15.0625 8.453125 -15.0625 C 10.367188 -15.0625 11.847656 -14.597656 12.890625 -13.671875 C 13.941406 -12.742188 14.476562 -11.457031 14.5 -9.8125 L 14.53125 0 Z M 7.078125 -2.421875 C 8.222656 -2.421875 9.191406 -2.6875 9.984375 -3.21875 C 10.785156 -3.75 11.234375 -4.425781 11.328125 -5.25 L 11.328125 -6.640625 L 7.28125 -6.640625 C 6.207031 -6.640625 5.421875 -6.484375 4.921875 -6.171875 C 4.429688 -5.859375 4.1875 -5.347656 4.1875 -4.640625 C 4.1875 -3.960938 4.441406 -3.421875 4.953125 -3.015625 C 5.472656 -2.617188 6.179688 -2.421875 7.078125 -2.421875 Z M 7.078125 -2.421875 "/></g></g><g style="fill:#040607;fill-opacity:1;"><g transform="translate(218.769358, 301.769862)"><path style="stroke:none" d="M 21.890625 -15.0625 C 23.597656 -15.0625 24.9375 -14.546875 25.90625 -13.515625 C 26.882812 -12.484375 27.375 -11.078125 27.375 -9.296875 L 27.375 0 L 24.140625 0 L 24.140625 -8.40625 C 24.140625 -9.550781 23.828125 -10.445312 23.203125 -11.09375 C 22.578125 -11.738281 21.710938 -12.0625 20.609375 -12.0625 C 19.347656 -12.019531 18.347656 -11.5625 17.609375 -10.6875 C 16.867188 -9.820312 16.5 -8.722656 16.5 -7.390625 L 16.5 0 L 13.265625 0 L 13.265625 -8.40625 C 13.265625 -9.550781 12.953125 -10.445312 12.328125 -11.09375 C 11.703125 -11.738281 10.84375 -12.0625 9.75 -12.0625 C 8.476562 -12.019531 7.46875 -11.5625 6.71875 -10.6875 C 5.96875 -9.820312 5.59375 -8.722656 5.59375 -7.390625 L 5.59375 0 L 2.390625 0 L 2.390625 -14.953125 L 5.59375 -14.953125 L 5.59375 -12.0625 C 6.582031 -14.0625 8.390625 -15.0625 11.015625 -15.0625 C 12.347656 -15.0625 13.457031 -14.75 14.34375 -14.125 C 15.238281 -13.5 15.863281 -12.613281 16.21875 -11.46875 C 17.132812 -13.863281 19.023438 -15.0625 21.890625 -15.0625 Z M 21.890625 -15.0625 "/></g></g><g style="fill:#040607;fill-opacity:1;"><g transform="translate(248.092065, 301.769862)"><path style="stroke:none" d="M 2.640625 -20.640625 C 2.992188 -21.003906 3.441406 -21.1875 3.984375 -21.1875 C 4.535156 -21.1875 4.988281 -21.003906 5.34375 -20.640625 C 5.695312 -20.273438 5.875 -19.804688 5.875 -19.234375 C 5.875 -18.671875 5.695312 -18.203125 5.34375 -17.828125 C 4.988281 -17.460938 4.535156 -17.28125 3.984375 -17.28125 C 3.441406 -17.28125 2.992188 -17.460938 2.640625 -17.828125 C 2.285156 -18.203125 2.109375 -18.671875 2.109375 -19.234375 C 2.109375 -19.804688 2.285156 -20.273438 2.640625 -20.640625 Z M 5.59375 0 L 2.390625 0 L 2.390625 -14.953125 L 5.59375 -14.953125 Z M 5.59375 0 "/></g></g><g style="fill:#040607;fill-opacity:1;"><g transform="translate(256.076383, 301.769862)"><path style="stroke:none" d="M 11.125 -15.0625 C 12.875 -15.0625 14.238281 -14.550781 15.21875 -13.53125 C 16.207031 -12.507812 16.703125 -11.097656 16.703125 -9.296875 L 16.703125 0 L 13.46875 0 L 13.46875 -8.40625 C 13.46875 -9.53125 13.144531 -10.414062 12.5 -11.0625 C 11.863281 -11.707031 10.984375 -12.03125 9.859375 -12.03125 C 8.660156 -12.007812 7.679688 -11.625 6.921875 -10.875 C 6.171875 -10.125 5.738281 -9.148438 5.625 -7.953125 L 5.625 0 L 2.390625 0 L 2.390625 -14.953125 L 5.625 -14.953125 L 5.625 -12.09375 C 6.632812 -14.070312 8.46875 -15.0625 11.125 -15.0625 Z M 11.125 -15.0625 "/></g></g><g style="fill:#040607;fill-opacity:1;"><g transform="translate(274.715842, 301.769862)"><path style="stroke:none" d="M 11.296875 -15.0625 C 13.046875 -15.0625 14.410156 -14.550781 15.390625 -13.53125 C 16.367188 -12.507812 16.859375 -11.097656 16.859375 -9.296875 L 16.859375 0 L 13.640625 0 L 13.640625 -8.40625 C 13.640625 -9.53125 13.316406 -10.414062 12.671875 -11.0625 C 12.035156 -11.707031 11.15625 -12.03125 10.03125 -12.03125 C 8.71875 -12.007812 7.675781 -11.5625 6.90625 -10.6875 C 6.144531 -9.820312 5.765625 -8.710938 5.765625 -7.359375 L 5.765625 0 L 2.53125 0 L 2.53125 -20.859375 L 5.765625 -20.859375 L 5.765625 -12.03125 C 6.796875 -14.050781 8.640625 -15.0625 11.296875 -15.0625 Z M 11.296875 -15.0625 "/></g></g><g style="fill:#040607;fill-opacity:1;"><g transform="translate(293.523992, 301.769862)"><path style="stroke:none" d="M 8.796875 -15.0625 C 11.097656 -15.0625 12.96875 -14.363281 14.40625 -12.96875 C 15.851562 -11.570312 16.578125 -9.742188 16.578125 -7.484375 C 16.578125 -5.234375 15.851562 -3.40625 14.40625 -2 C 12.96875 -0.59375 11.097656 0.109375 8.796875 0.109375 C 6.472656 0.109375 4.585938 -0.59375 3.140625 -2 C 1.703125 -3.40625 0.984375 -5.234375 0.984375 -7.484375 C 0.984375 -9.742188 1.703125 -11.570312 3.140625 -12.96875 C 4.585938 -14.363281 6.472656 -15.0625 8.796875 -15.0625 Z M 8.796875 -12.28125 C 7.453125 -12.28125 6.351562 -11.828125 5.5 -10.921875 C 4.644531 -10.023438 4.21875 -8.867188 4.21875 -7.453125 C 4.21875 -6.003906 4.644531 -4.832031 5.5 -3.9375 C 6.351562 -3.039062 7.453125 -2.59375 8.796875 -2.59375 C 10.148438 -2.59375 11.25 -3.039062 12.09375 -3.9375 C 12.9375 -4.832031 13.359375 -6.003906 13.359375 -7.453125 C 13.359375 -8.867188 12.929688 -10.023438 12.078125 -10.921875 C 11.222656 -11.828125 10.128906 -12.28125 8.796875 -12.28125 Z M 8.796875 -12.28125 "/></g></g><g clip-rule="nonzero" clip-path="url(#38b13aaef3)"><path style=" stroke:none;fill-rule:nonzero;fill:#000000;fill-opacity:1;" d="M 280.316406 291.351562 L 280.316406 270.347656 L 277.480469 270.347656 L 277.480469 291.351562 L 280.316406 291.351562 "/></g><g clip-rule="nonzero" clip-path="url(#7036996bc9)"><path style=" stroke:none;fill-rule:nonzero;fill:#000000;fill-opacity:1;" d="M 284.773438 275.039062 L 272.816406 275.039062 L 272.816406 277.894531 L 284.773438 277.894531 L 284.773438 275.039062 "/></g><g clip-rule="nonzero" clip-path="url(#3f33c6b8ca)"><g clip-rule="nonzero" clip-path="url(#08ee78c88b)"><g clip-rule="nonzero" clip-path="url(#a6d0cf3d83)"><path style=" stroke:none;fill-rule:nonzero;fill:#008000;fill-opacity:1;" d="M 273.507812 264.402344 C 272.589844 263.105469 270.84375 263.867188 271.019531 265.390625 C 269.988281 264.253906 268.265625 265.0625 268.636719 266.613281 C 268.96875 268.015625 272.578125 268.832031 272.578125 268.832031 C 272.578125 268.832031 274.34375 265.578125 273.507812 264.402344 Z M 273.507812 264.402344 "/></g></g></g><g clip-rule="nonzero" clip-path="url(#e2bd051a14)"><path style=" stroke:none;fill-rule:nonzero;fill:#ffffff;fill-opacity:1;" d="M 253.238281 175.484375 L 216.722656 175.484375 L 216.722656 138.96875 L 211.105469 138.96875 L 211.105469 175.484375 L 174.582031 175.484375 L 174.582031 181.105469 L 211.105469 181.105469 L 211.105469 262.570312 L 216.722656 262.570312 L 216.722656 181.105469 L 253.238281 181.105469 Z M 253.238281 175.484375 "/></g><g clip-rule="nonzero" clip-path="url(#510b229ab3)"><g clip-rule="nonzero" clip-path="url(#07303715fc)"><g clip-rule="nonzero" clip-path="url(#ba0b700d50)"><path style=" stroke:none;fill-rule:nonzero;fill:#ffff00;fill-opacity:1;" d="M 141.113281 279.5625 C 139.707031 277.585938 137.050781 278.746094 137.316406 281.070312 C 135.746094 279.339844 133.121094 280.570312 133.679688 282.933594 C 134.191406 285.074219 139.695312 286.320312 139.695312 286.320312 C 139.695312 286.320312 142.386719 281.359375 141.113281 279.5625 Z M 141.113281 279.5625 "/></g></g></g><g style="fill:#ac663e;fill-opacity:1;"><g transform="translate(164.968131, 324.960546)"><path style="stroke:none" d="M 4.734375 -7.859375 L 4.734375 -2.421875 C 4.734375 -1.640625 4.515625 -1.03125 4.078125 -0.59375 C 3.648438 -0.15625 3.050781 0.0625 2.28125 0.0625 C 1.351562 0.0625 0.585938 -0.316406 -0.015625 -1.078125 L 0.609375 -2.09375 C 1.140625 -1.507812 1.695312 -1.21875 2.28125 -1.21875 C 2.632812 -1.21875 2.910156 -1.320312 3.109375 -1.53125 C 3.304688 -1.75 3.40625 -2.0625 3.40625 -2.46875 L 3.40625 -6.65625 L 0.6875 -6.65625 L 0.6875 -7.859375 Z M 4.734375 -7.859375 "/></g></g><g style="fill:#ac663e;fill-opacity:1;"><g transform="translate(170.568389, 324.960546)"><path style="stroke:none" d="M 3.515625 -6.015625 C 4.429688 -6.015625 5.175781 -5.734375 5.75 -5.171875 C 6.332031 -4.617188 6.625 -3.890625 6.625 -2.984375 C 6.625 -2.085938 6.332031 -1.359375 5.75 -0.796875 C 5.175781 -0.234375 4.429688 0.046875 3.515625 0.046875 C 2.585938 0.046875 1.832031 -0.234375 1.25 -0.796875 C 0.675781 -1.359375 0.390625 -2.085938 0.390625 -2.984375 C 0.390625 -3.890625 0.675781 -4.617188 1.25 -5.171875 C 1.832031 -5.734375 2.585938 -6.015625 3.515625 -6.015625 Z M 3.515625 -4.90625 C 2.972656 -4.90625 2.53125 -4.722656 2.1875 -4.359375 C 1.851562 -4.003906 1.6875 -3.539062 1.6875 -2.96875 C 1.6875 -2.394531 1.851562 -1.925781 2.1875 -1.5625 C 2.53125 -1.207031 2.96875 -1.03125 3.5 -1.03125 C 4.039062 -1.03125 4.476562 -1.207031 4.8125 -1.5625 C 5.15625 -1.925781 5.328125 -2.394531 5.328125 -2.96875 C 5.328125 -3.539062 5.15625 -4.003906 4.8125 -4.359375 C 4.476562 -4.722656 4.046875 -4.90625 3.515625 -4.90625 Z M 3.515625 -4.90625 "/></g></g><g style="fill:#ac663e;fill-opacity:1;"><g transform="translate(177.582742, 324.960546)"><path style="stroke:none" d="M 2.6875 -7.578125 C 2.414062 -7.578125 2.28125 -7.394531 2.28125 -7.03125 L 1.453125 -7.03125 C 1.453125 -8.007812 1.796875 -8.5 2.484375 -8.5 C 2.703125 -8.5 2.953125 -8.394531 3.234375 -8.1875 C 3.515625 -7.988281 3.707031 -7.890625 3.8125 -7.890625 C 4.09375 -7.890625 4.234375 -8.070312 4.234375 -8.4375 L 5.0625 -8.4375 C 5.0625 -7.457031 4.71875 -6.96875 4.03125 -6.96875 C 3.789062 -6.96875 3.53125 -7.066406 3.25 -7.265625 C 2.976562 -7.472656 2.789062 -7.578125 2.6875 -7.578125 Z M 4.53125 0 L 4.53125 -0.734375 C 4.101562 -0.203125 3.445312 0.0625 2.5625 0.0625 C 1.925781 0.0625 1.414062 -0.109375 1.03125 -0.453125 C 0.644531 -0.804688 0.453125 -1.253906 0.453125 -1.796875 C 0.453125 -2.335938 0.648438 -2.769531 1.046875 -3.09375 C 1.453125 -3.414062 2.007812 -3.582031 2.71875 -3.59375 L 4.515625 -3.59375 L 4.515625 -3.765625 C 4.515625 -4.148438 4.394531 -4.445312 4.15625 -4.65625 C 3.914062 -4.863281 3.5625 -4.96875 3.09375 -4.96875 C 2.519531 -4.96875 1.929688 -4.765625 1.328125 -4.359375 L 0.8125 -5.265625 C 1.257812 -5.535156 1.664062 -5.726562 2.03125 -5.84375 C 2.394531 -5.957031 2.84375 -6.015625 3.375 -6.015625 C 4.132812 -6.015625 4.722656 -5.828125 5.140625 -5.453125 C 5.566406 -5.085938 5.78125 -4.578125 5.78125 -3.921875 L 5.796875 0 Z M 2.828125 -0.96875 C 3.285156 -0.96875 3.671875 -1.070312 3.984375 -1.28125 C 4.304688 -1.5 4.484375 -1.769531 4.515625 -2.09375 L 4.515625 -2.640625 L 2.90625 -2.640625 C 2.476562 -2.640625 2.164062 -2.578125 1.96875 -2.453125 C 1.769531 -2.335938 1.671875 -2.132812 1.671875 -1.84375 C 1.671875 -1.582031 1.769531 -1.367188 1.96875 -1.203125 C 2.175781 -1.046875 2.460938 -0.96875 2.828125 -0.96875 Z M 2.828125 -0.96875 "/></g></g><g style="fill:#ac663e;fill-opacity:1;"><g transform="translate(184.159399, 324.960546)"><path style="stroke:none" d="M 3.515625 -6.015625 C 4.429688 -6.015625 5.175781 -5.734375 5.75 -5.171875 C 6.332031 -4.617188 6.625 -3.890625 6.625 -2.984375 C 6.625 -2.085938 6.332031 -1.359375 5.75 -0.796875 C 5.175781 -0.234375 4.429688 0.046875 3.515625 0.046875 C 2.585938 0.046875 1.832031 -0.234375 1.25 -0.796875 C 0.675781 -1.359375 0.390625 -2.085938 0.390625 -2.984375 C 0.390625 -3.890625 0.675781 -4.617188 1.25 -5.171875 C 1.832031 -5.734375 2.585938 -6.015625 3.515625 -6.015625 Z M 3.515625 -4.90625 C 2.972656 -4.90625 2.53125 -4.722656 2.1875 -4.359375 C 1.851562 -4.003906 1.6875 -3.539062 1.6875 -2.96875 C 1.6875 -2.394531 1.851562 -1.925781 2.1875 -1.5625 C 2.53125 -1.207031 2.96875 -1.03125 3.5 -1.03125 C 4.039062 -1.03125 4.476562 -1.207031 4.8125 -1.5625 C 5.15625 -1.925781 5.328125 -2.394531 5.328125 -2.96875 C 5.328125 -3.539062 5.15625 -4.003906 4.8125 -4.359375 C 4.476562 -4.722656 4.046875 -4.90625 3.515625 -4.90625 Z M 3.515625 -4.90625 "/></g></g><g style="fill:#ac663e;fill-opacity:1;"><g transform="translate(191.173752, 324.960546)"><path style="stroke:none" d=""/></g></g><g style="fill:#ac663e;fill-opacity:1;"><g transform="translate(194.069277, 324.960546)"><path style="stroke:none" d="M 3 0 L 1.6875 0 L 1.6875 -6.671875 L 0.140625 -6.671875 L 0.140625 -7.859375 L 3 -7.859375 Z M 3 0 "/></g></g><g style="fill:#ac663e;fill-opacity:1;"><g transform="translate(198.412567, 324.960546)"><path style="stroke:none" d="M 1.75 -3.109375 L 4.078125 -3.109375 L 4.078125 -4.96875 L 5.3125 -4.96875 L 5.3125 -3.109375 L 6.46875 -3.109375 L 6.46875 -1.921875 L 5.3125 -1.921875 L 5.3125 0 L 4.078125 0 L 4.078125 -1.921875 L 0.34375 -1.921875 L 0.34375 -2.921875 L 3.015625 -7.859375 L 4.296875 -7.859375 Z M 1.75 -3.109375 "/></g></g><g style="fill:#ac663e;fill-opacity:1;"><g transform="translate(205.135123, 324.960546)"><path style="stroke:none" d="M 0.71875 -4.5 C 0.851562 -4.644531 1.019531 -4.71875 1.21875 -4.71875 C 1.425781 -4.71875 1.59375 -4.644531 1.71875 -4.5 C 1.851562 -4.363281 1.921875 -4.191406 1.921875 -3.984375 C 1.921875 -3.765625 1.851562 -3.582031 1.71875 -3.4375 C 1.59375 -3.300781 1.425781 -3.234375 1.21875 -3.234375 C 1.019531 -3.234375 0.851562 -3.300781 0.71875 -3.4375 C 0.582031 -3.582031 0.515625 -3.765625 0.515625 -3.984375 C 0.515625 -4.191406 0.582031 -4.363281 0.71875 -4.5 Z M 0.71875 -1.171875 C 0.851562 -1.304688 1.019531 -1.375 1.21875 -1.375 C 1.425781 -1.375 1.59375 -1.304688 1.71875 -1.171875 C 1.851562 -1.035156 1.921875 -0.863281 1.921875 -0.65625 C 1.921875 -0.4375 1.851562 -0.253906 1.71875 -0.109375 C 1.59375 0.0234375 1.425781 0.09375 1.21875 0.09375 C 1.019531 0.09375 0.851562 0.0234375 0.71875 -0.109375 C 0.582031 -0.253906 0.515625 -0.4375 0.515625 -0.65625 C 0.515625 -0.863281 0.582031 -1.035156 0.71875 -1.171875 Z M 0.71875 -1.171875 "/></g></g><g style="fill:#ac663e;fill-opacity:1;"><g transform="translate(207.514391, 324.960546)"><path style="stroke:none" d="M 3.875 -7.890625 C 4.945312 -7.890625 5.769531 -7.546875 6.34375 -6.859375 C 6.925781 -6.171875 7.21875 -5.191406 7.21875 -3.921875 C 7.21875 -2.648438 6.925781 -1.671875 6.34375 -0.984375 C 5.769531 -0.304688 4.945312 0.03125 3.875 0.03125 C 2.800781 0.03125 1.972656 -0.304688 1.390625 -0.984375 C 0.816406 -1.671875 0.53125 -2.648438 0.53125 -3.921875 C 0.53125 -5.191406 0.816406 -6.171875 1.390625 -6.859375 C 1.972656 -7.546875 2.800781 -7.890625 3.875 -7.890625 Z M 3.875 -6.84375 C 2.550781 -6.84375 1.890625 -5.867188 1.890625 -3.921875 C 1.890625 -1.984375 2.550781 -1.015625 3.875 -1.015625 C 5.195312 -1.015625 5.859375 -1.984375 5.859375 -3.921875 C 5.859375 -5.867188 5.195312 -6.84375 3.875 -6.84375 Z M 3.875 -6.84375 "/></g></g><g style="fill:#ac663e;fill-opacity:1;"><g transform="translate(215.269459, 324.960546)"><path style="stroke:none" d="M 3.921875 -7.90625 C 4.785156 -7.90625 5.566406 -7.707031 6.265625 -7.3125 L 5.75 -6.3125 C 5.25 -6.644531 4.671875 -6.8125 4.015625 -6.8125 C 3.273438 -6.8125 2.71875 -6.554688 2.34375 -6.046875 C 1.976562 -5.535156 1.804688 -4.84375 1.828125 -3.96875 C 2.242188 -4.707031 2.957031 -5.078125 3.96875 -5.078125 C 4.75 -5.078125 5.363281 -4.847656 5.8125 -4.390625 C 6.269531 -3.941406 6.5 -3.335938 6.5 -2.578125 C 6.5 -1.773438 6.25 -1.132812 5.75 -0.65625 C 5.25 -0.175781 4.578125 0.0625 3.734375 0.0625 C 2.742188 0.0625 1.960938 -0.273438 1.390625 -0.953125 C 0.816406 -1.628906 0.53125 -2.566406 0.53125 -3.765625 C 0.53125 -5.023438 0.835938 -6.03125 1.453125 -6.78125 C 2.066406 -7.53125 2.890625 -7.90625 3.921875 -7.90625 Z M 3.71875 -4.03125 C 3.207031 -4.03125 2.796875 -3.882812 2.484375 -3.59375 C 2.179688 -3.3125 2.035156 -2.960938 2.046875 -2.546875 C 2.035156 -2.160156 2.171875 -1.820312 2.453125 -1.53125 C 2.734375 -1.238281 3.140625 -1.09375 3.671875 -1.09375 C 4.148438 -1.09375 4.535156 -1.222656 4.828125 -1.484375 C 5.117188 -1.753906 5.265625 -2.125 5.265625 -2.59375 C 5.265625 -3.039062 5.125 -3.390625 4.84375 -3.640625 C 4.570312 -3.898438 4.195312 -4.03125 3.71875 -4.03125 Z M 3.71875 -4.03125 "/></g></g><g style="fill:#ffffff;fill-opacity:1;"><g transform="translate(117.357621, 221.860308)"><path style="stroke:none" d="M 10.484375 -17.375 L 10.484375 -5.359375 C 10.484375 -3.617188 10 -2.269531 9.03125 -1.3125 C 8.070312 -0.351562 6.75 0.125 5.0625 0.125 C 3.007812 0.125 1.304688 -0.710938 -0.046875 -2.390625 L 1.34375 -4.625 C 2.519531 -3.34375 3.753906 -2.703125 5.046875 -2.703125 C 5.835938 -2.703125 6.445312 -2.9375 6.875 -3.40625 C 7.300781 -3.882812 7.515625 -4.570312 7.515625 -5.46875 L 7.515625 -14.75 L 1.515625 -14.75 L 1.515625 -17.375 Z M 10.484375 -17.375 "/></g></g><g style="fill:#ffffff;fill-opacity:1;"><g transform="translate(129.744929, 221.860308)"><path style="stroke:none" d="M 14.703125 -14.75 L 5.21875 -14.75 L 5.21875 -10.0625 L 13.703125 -10.0625 L 13.703125 -7.421875 L 5.21875 -7.421875 L 5.21875 -2.625 L 15 -2.625 L 15 0 L 2.28125 0 L 2.28125 -17.375 L 14.703125 -17.375 Z M 14.703125 -14.75 "/></g></g><g style="fill:#ffffff;fill-opacity:1;"><g transform="translate(146.029672, 221.860308)"><path style="stroke:none" d="M 8 -17.5 C 10.25 -17.5 12.273438 -16.90625 14.078125 -15.71875 L 12.859375 -13.140625 C 11.085938 -14.210938 9.390625 -14.75 7.765625 -14.75 C 6.890625 -14.75 6.195312 -14.585938 5.6875 -14.265625 C 5.1875 -13.953125 4.9375 -13.503906 4.9375 -12.921875 C 4.9375 -12.347656 5.164062 -11.859375 5.625 -11.453125 C 6.09375 -11.046875 6.675781 -10.75 7.375 -10.5625 C 8.070312 -10.375 8.820312 -10.132812 9.625 -9.84375 C 10.4375 -9.550781 11.191406 -9.242188 11.890625 -8.921875 C 12.585938 -8.597656 13.160156 -8.09375 13.609375 -7.40625 C 14.066406 -6.71875 14.296875 -5.890625 14.296875 -4.921875 C 14.296875 -3.390625 13.6875 -2.171875 12.46875 -1.265625 C 11.257812 -0.359375 9.6875 0.09375 7.75 0.09375 C 6.425781 0.09375 5.140625 -0.148438 3.890625 -0.640625 C 2.648438 -1.140625 1.566406 -1.8125 0.640625 -2.65625 L 1.90625 -5.1875 C 2.789062 -4.375 3.753906 -3.75 4.796875 -3.3125 C 5.847656 -2.875 6.847656 -2.65625 7.796875 -2.65625 C 8.816406 -2.65625 9.613281 -2.84375 10.1875 -3.21875 C 10.757812 -3.59375 11.046875 -4.109375 11.046875 -4.765625 C 11.046875 -5.359375 10.8125 -5.859375 10.34375 -6.265625 C 9.882812 -6.671875 9.304688 -6.96875 8.609375 -7.15625 C 7.921875 -7.351562 7.171875 -7.585938 6.359375 -7.859375 C 5.546875 -8.128906 4.789062 -8.414062 4.09375 -8.71875 C 3.394531 -9.03125 2.8125 -9.523438 2.34375 -10.203125 C 1.882812 -10.878906 1.65625 -11.695312 1.65625 -12.65625 C 1.65625 -14.132812 2.234375 -15.3125 3.390625 -16.1875 C 4.554688 -17.0625 6.09375 -17.5 8 -17.5 Z M 8 -17.5 "/></g></g><g style="fill:#ffffff;fill-opacity:1;"><g transform="translate(161.470388, 221.860308)"><path style="stroke:none" d="M 17.0625 -17.375 L 17.0625 -7.203125 C 17.0625 -4.929688 16.390625 -3.140625 15.046875 -1.828125 C 13.703125 -0.523438 11.851562 0.125 9.5 0.125 C 7.15625 0.125 5.304688 -0.523438 3.953125 -1.828125 C 2.609375 -3.140625 1.9375 -4.929688 1.9375 -7.203125 L 1.9375 -17.375 L 4.859375 -17.375 L 4.859375 -7.203125 C 4.859375 -5.742188 5.273438 -4.59375 6.109375 -3.75 C 6.953125 -2.914062 8.09375 -2.5 9.53125 -2.5 C 10.957031 -2.5 12.078125 -2.910156 12.890625 -3.734375 C 13.710938 -4.566406 14.125 -5.722656 14.125 -7.203125 L 14.125 -17.375 Z M 17.0625 -17.375 "/></g></g><g style="fill:#ffffff;fill-opacity:1;"><g transform="translate(180.436139, 221.860308)"><path style="stroke:none" d="M 8 -17.5 C 10.25 -17.5 12.273438 -16.90625 14.078125 -15.71875 L 12.859375 -13.140625 C 11.085938 -14.210938 9.390625 -14.75 7.765625 -14.75 C 6.890625 -14.75 6.195312 -14.585938 5.6875 -14.265625 C 5.1875 -13.953125 4.9375 -13.503906 4.9375 -12.921875 C 4.9375 -12.347656 5.164062 -11.859375 5.625 -11.453125 C 6.09375 -11.046875 6.675781 -10.75 7.375 -10.5625 C 8.070312 -10.375 8.820312 -10.132812 9.625 -9.84375 C 10.4375 -9.550781 11.191406 -9.242188 11.890625 -8.921875 C 12.585938 -8.597656 13.160156 -8.09375 13.609375 -7.40625 C 14.066406 -6.71875 14.296875 -5.890625 14.296875 -4.921875 C 14.296875 -3.390625 13.6875 -2.171875 12.46875 -1.265625 C 11.257812 -0.359375 9.6875 0.09375 7.75 0.09375 C 6.425781 0.09375 5.140625 -0.148438 3.890625 -0.640625 C 2.648438 -1.140625 1.566406 -1.8125 0.640625 -2.65625 L 1.90625 -5.1875 C 2.789062 -4.375 3.753906 -3.75 4.796875 -3.3125 C 5.847656 -2.875 6.847656 -2.65625 7.796875 -2.65625 C 8.816406 -2.65625 9.613281 -2.84375 10.1875 -3.21875 C 10.757812 -3.59375 11.046875 -4.109375 11.046875 -4.765625 C 11.046875 -5.359375 10.8125 -5.859375 10.34375 -6.265625 C 9.882812 -6.671875 9.304688 -6.96875 8.609375 -7.15625 C 7.921875 -7.351562 7.171875 -7.585938 6.359375 -7.859375 C 5.546875 -8.128906 4.789062 -8.414062 4.09375 -8.71875 C 3.394531 -9.03125 2.8125 -9.523438 2.34375 -10.203125 C 1.882812 -10.878906 1.65625 -11.695312 1.65625 -12.65625 C 1.65625 -14.132812 2.234375 -15.3125 3.390625 -16.1875 C 4.554688 -17.0625 6.09375 -17.5 8 -17.5 Z M 8 -17.5 "/></g></g></g></svg>